<?xml version="1.0" encoding="utf-8"?>
<!DOCTYPE svg PUBLIC "-//W3C//DTD SVG 1.1//EN" "http://www.w3.org/Graphics/SVG/1.1/DTD/svg11.dtd">
<svg version="1.1" id="icon-list" xmlns="http://www.w3.org/2000/svg" xmlns:xlink="http://www.w3.org/1999/xlink" x="0px"
	 y="0px" width="40px" height="40px" viewBox="0 0 40 40" enable-background="new 0 0 40 40" xml:space="preserve">
<path fill="#575656" d="M7.602,32.881c-1.645,0-2.981-1.336-2.981-2.973c0-1.641,1.338-2.973,2.981-2.973
	c1.651,0,2.988,1.332,2.988,2.973C10.59,31.545,9.252,32.881,7.602,32.881z M7.602,28.636c-0.706,0-1.281,0.569-1.281,1.272
	c0,0.701,0.575,1.271,1.281,1.271s1.278-0.57,1.278-1.271C8.88,29.203,8.308,28.636,7.602,28.636z"/>
<rect x="14" y="29.025" fill="#575656" width="20" height="1.981"/>
<path fill="#575656" d="M7.602,13.064c-1.645,0-2.981-1.336-2.981-2.974c0-1.64,1.338-2.972,2.981-2.972
	c1.651,0,2.988,1.333,2.988,2.972C10.59,11.729,9.252,13.064,7.602,13.064z M7.602,8.818c-0.706,0-1.281,0.569-1.281,1.272
	c0,0.7,0.575,1.273,1.281,1.273S8.88,10.79,8.88,10.09C8.88,9.386,8.308,8.818,7.602,8.818z"/>
<rect x="14" y="9.024" fill="#575656" width="20" height="1.983"/>
<path fill="#575656" d="M7.685,22.98c-1.645,0-2.981-1.336-2.981-2.974c0-1.64,1.338-2.973,2.981-2.973
	c1.651,0,2.988,1.333,2.988,2.973C10.673,21.645,9.335,22.98,7.685,22.98z M7.685,18.735c-0.706,0-1.281,0.569-1.281,1.272
	c0,0.7,0.575,1.272,1.281,1.272s1.278-0.572,1.278-1.272C8.963,19.303,8.391,18.735,7.685,18.735z"/>
<rect x="14.083" y="19.024" fill="#575656" width="16.917" height="1.983"/>
</svg>
