<?xml version="1.0" encoding="utf-8"?>
<!DOCTYPE svg PUBLIC "-//W3C//DTD SVG 1.1//EN" "http://www.w3.org/Graphics/SVG/1.1/DTD/svg11.dtd">
<svg version="1.1" id="content-instagram" xmlns="http://www.w3.org/2000/svg" xmlns:xlink="http://www.w3.org/1999/xlink" x="0px"
	 y="0px" width="800px" height="600px" viewBox="0 0 800 600" enable-background="new 0 0 800 600" xml:space="preserve">
<rect fill="#305B88" width="800" height="600"/>
<g>
	<path fill="#FFFFFF" d="M494,229v140c0,6.629-1.803,12.703-6.549,17.451C482.703,391.197,476.629,393,470,393H330
		c-6.629,0-12.134-1.803-16.879-6.549c-4.748-4.748-7.121-10.436-7.121-17.064V229.185c0-6.629,2.373-12.317,7.121-17.065
		c4.746-4.746,10.435-7.12,17.064-7.12h140.202c6.629,0,12.316,2.375,17.064,7.12C492.197,216.868,494,222.371,494,229z
		 M473.209,364.354v-79.555h-16.572c1.635,5.156,2.455,10.518,2.455,16.082c0,10.312-2.621,19.828-7.857,28.545
		c-5.238,8.717-12.359,15.611-21.361,20.686c-9.004,5.076-18.826,7.611-29.464,7.611c-16.125,0-29.916-5.543-41.373-16.635
		c-11.459-11.09-17.188-24.492-17.188-40.207c0-5.564,0.817-10.926,2.456-16.082h-17.311v79.555c0,2.129,0.716,3.908,2.148,5.34
		c1.431,1.434,3.211,2.148,5.34,2.148h131.239c2.045,0,3.807-0.715,5.279-2.148C472.473,368.262,473.209,366.482,473.209,364.354z
		 M427.232,324.883c7.406-7.16,11.111-15.816,11.111-25.965s-3.705-18.803-11.111-25.966c-7.408-7.161-16.35-10.742-26.824-10.742
		c-10.395,0-19.296,3.582-26.702,10.742c-7.408,7.163-11.11,15.818-11.11,25.966s3.702,18.805,11.11,25.965
		c7.406,7.162,16.307,10.742,26.702,10.742C410.883,335.625,419.824,332.045,427.232,324.883z M473.209,254.721v-20.257
		c0-2.29-0.818-4.275-2.455-5.954c-1.639-1.676-3.643-2.517-6.016-2.517h-21.361c-2.375,0-4.379,0.84-6.016,2.517
		c-1.639,1.679-2.455,3.664-2.455,5.954v20.257c0,2.375,0.816,4.379,2.455,6.016c1.637,1.638,3.641,2.456,6.016,2.456h21.361
		c2.373,0,4.377-0.817,6.016-2.456C472.391,259.1,473.209,257.096,473.209,254.721z"/>
</g>
</svg>
