<?xml version="1.0" encoding="utf-8"?>
<!-- Generator: Adobe Illustrator 18.1.1, SVG Export Plug-In . SVG Version: 6.00 Build 0)  -->
<svg xmlns="http://www.w3.org/2000/svg" xmlns:xlink="http://www.w3.org/1999/xlink" version="1.1" id="Capa_1" x="0px" y="0px" viewBox="0 0 37.967 37.967" style="enable-background:new 0 0 37.967 37.967;" xml:space="preserve" width="20px" height="20px">
	<path d="M28.934,23.342l-0.235,0.26l-0.472,0.059c-0.395-0.037-1.068-0.111-5.088-4.973    c-2.53,4.973-2.947,4.973-3.423,4.973c-0.474-0.033-0.872-0.059-3.566-4.682c-3.613,4.531-4.427,4.639-4.704,4.674l-0.139,0.01    c-0.797,0-2.096-1.135-3.87-3.383l-2.543,2.14c1.926,9.342,14.055,15.547,14.055,15.547s12.502-6.758,14.122-15.426l-3.73-2.957    C29.525,22.684,29.09,23.166,28.934,23.342z" fill="#FFFFFF"/>
	<path d="M11.379,22.484c0.876-0.113,4.903-5.297,4.903-5.297s3.014,5.264,3.466,5.297    c0.451,0.031,3.264-5.623,3.264-5.623s4.502,5.541,5.231,5.623c0.73,0.084,0.195-5.031,0.195-5.031l6.354,5.031    c0-8.352-6.478-15.172-14.682-15.754c0.562-1.963,1.856-5.164,4.326-5.164V0c-3.759,0-5.374,4.438-5.955,6.697    C9.986,6.963,3.174,13.92,3.174,22.484l4.416-3.725C7.59,18.76,10.502,22.598,11.379,22.484z" fill="#FFFFFF"/>
</svg>
