<svg xmlns="http://www.w3.org/2000/svg" xmlns:xlink="http://www.w3.org/1999/xlink" viewBox="0 0 167.13 73.78" width="167" height="74.3"><path class="cls-3" d="M3457.86,821.81v-7.73H3340.71v7.73h7.72v10.3h-7.72v55.75h17V872.48a16.54,16.54,0,0,1,33.09,0v15.39h17V872.48a16.54,16.54,0,0,1,33.09,0v15.39h17V832.11h-7.72v-10.3h7.72Zm-62.44,10.3h-39.27v-10.3h39.27v10.3Zm47,0h-39.27v-10.3h39.27v10.3Zm0,0" transform="translate(-3340.71 -814.09)"/><path class="cls-3" d="M3507.84,821.81v-7.73H3390.69v7.73h7.72v10.3h-7.72v55.75h17V872.48a16.54,16.54,0,0,1,33.09,0v15.39h17V872.48a16.54,16.54,0,0,1,33.09,0v15.39h17V832.11h-7.72v-10.3h7.72Zm-62.44,10.3h-39.27v-10.3h39.27v10.3Zm47,0h-39.27v-10.3h39.27v10.3Zm0,0" transform="translate(-3340.71 -814.09)"/></svg>
