<svg xmlns="http://www.w3.org/2000/svg" viewBox="0 0 96.3 120" width="96.5" height="120"><path class="cls-1" d="M2736.1,798.92v89.26h44.21V869.78h7.88v18.39h44.21V798.92h-96.3ZM2781,858h-31.33v-7.88H2781V858Zm0-18.39h-31.33v-7.88H2781v7.88Zm0-18.39h-31.33v-7.88H2781v7.88ZM2818.83,858h-29.5v-7.88h29.5V858Zm0-18.39h-29.5v-7.88h29.5v7.88Zm0-18.39h-29.5v-7.88h29.5v7.88Zm0,0" transform="translate(-2736.1 -768.18)"/><path class="cls-1" d="M2761.49,781.31h7.88V791h10.94v-9.72h7.88V791h10.94v-9.72H2807V791h14.88V768.18h-75.27V791h14.88v-9.72Zm0,0" transform="translate(-2736.1 -768.18)"/></svg>
