<svg xmlns="http://www.w3.org/2000/svg" viewBox="0 0 120 120" width="120" height="120"><path class="cls-1" d="M2827.22-233.3v100.75h24.07v-18.24h7.91v18.24h24.07V-233.3h-56Zm43.3,61.72H2840v-7.91h30.55v7.91Zm0-19.25H2840v-7.91h30.55v7.91Zm0-19.25H2840V-218h30.55v7.91Zm0,0" transform="translate(-2763.26 252.55)"/><path class="cls-1" d="M2763.26-132.55h24.07v-18.24h7.91v18.24h24.07v-120h-56v120ZM2776-237.26h30.55v7.91H2776v-7.91Zm0,19.25h30.55v7.91H2776V-218Zm0,19.25h30.55v7.91H2776v-7.91Zm0,19.25h30.55v7.91H2776v-7.91Zm0,0" transform="translate(-2763.26 252.55)"/></svg>
