<svg xmlns="http://www.w3.org/2000/svg" viewBox="0 0 160.15 102.04" width="160" height="102"><path class="cls-1" d="M9780.39,499a5,5,0,1,0-5,5,5,5,0,0,0,5-5h0Zm0,0" transform="translate(-9756.18 -413.41)"/><path class="cls-1" d="M9913.73,507.49h-4l-14.88-27.29a6.07,6.07,0,0,0-11.39,2.9v16.09h-8.65c0-.06,0-0.12,0-0.17a16.36,16.36,0,0,0-4.51-11.29,8.14,8.14,0,0,0,7.27-8.08V460.28a8.14,8.14,0,0,0-8.13-8.13h-25.08v-14a5.37,5.37,0,0,0-5.36-5.36h-0.17v-10.1a5.32,5.32,0,0,0-1.57-3.79l-4.72-4.72a2.59,2.59,0,1,0-3.67,3.67l4.72,4.72a0.17,0.17,0,0,1,.05.12v10.1h-0.17a5.37,5.37,0,0,0-5.36,5.36v14h-4l-9-22.56a8.09,8.09,0,0,0-7.55-5.11h-37.76a2.59,2.59,0,1,0,0,5.19H9770v22.48h-5.71a8.14,8.14,0,0,0-8.13,8.13v19.37a8.14,8.14,0,0,0,7.27,8.08,16.42,16.42,0,0,0,11.92,27.72h83a16.46,16.46,0,0,0,15.53-11.07h9.55v5.71a2.6,2.6,0,0,0,2.59,2.59h27.67a2.59,2.59,0,1,0,0-5.19h0ZM9858.39,494a5,5,0,0,0-5,5c0,0.06,0,.12,0,0.17h-6.23c0-.06,0-0.12,0-0.17a11.24,11.24,0,1,1,22.48,0c0,0.06,0,.12,0,0.17h-6.23c0-.06,0-0.12,0-0.17a5,5,0,0,0-5-5h0Zm-58.11,10.38h42.58a16.46,16.46,0,0,0,3.56,5.88h-59.08a16.4,16.4,0,0,0-2.47-24.63l10.21-2.07a8.13,8.13,0,0,0,8,9.75h27.67a8.14,8.14,0,0,0,8.13-8.13,8.05,8.05,0,0,0-.16-1.62l10.21,2.07A16.42,16.42,0,0,0,9842,499c0,0.06,0,.12,0,0.17h-41.68a2.59,2.59,0,1,0,0,5.19h0Zm11.83-52.23L9806.79,438h6.12l5.67,14.18h-6.48ZM9801.25,438l7.51,20v8H9792a5.71,5.71,0,0,1-5.71-5.71V438h15Zm32.41,47.21a2.94,2.94,0,0,1-2.94,2.94,2.91,2.91,0,0,1-2.19-1,2.94,2.94,0,0,1-.73-2.3,3,3,0,0,1,3-2.6,2.94,2.94,0,0,1,2.87,2.94h0Zm-10.51-2.94a8,8,0,0,0-.51,2,8.19,8.19,0,0,0,.51,3.84h-12.51a8.15,8.15,0,0,0,.54-3.33,8,8,0,0,0-.55-2.55h12.53ZM9806,485a2.94,2.94,0,1,1-3-2.79,3,3,0,0,1,3,2.79h0Zm66.42-24.76v19.37a2.94,2.94,0,0,1-2.94,2.94h-9.4l-25.55-5.17a18.34,18.34,0,0,0-3.63-.36H9825V457.33h8.65V463a2.59,2.59,0,1,0,5.19,0v-5.71h30.61a2.94,2.94,0,0,1,2.94,2.94h0Zm-39.09-22.14a0.17,0.17,0,0,1,.17-0.17H9839a0.17,0.17,0,0,1,.17.17v14h-5.88v-14Zm-71.95,41.51V460.28a2.94,2.94,0,0,1,2.94-2.94h8.3a2.6,2.6,0,0,0,2.59-2.59V429.66h32.4a2.92,2.92,0,0,1,2.73,1.85l0.51,1.27h-27.16a2.59,2.59,0,0,0-2.59,2.59v24.91a10.91,10.91,0,0,0,10.9,10.9h19.37a2.6,2.6,0,0,0,2.59-2.59V457.51c0-.06,0-0.11,0-0.17h5.89V477h-16.93a18.34,18.34,0,0,0-3.63.36l-25.54,5.17h-9.41a2.94,2.94,0,0,1-2.94-2.94h0Zm2.77,19.37a11.24,11.24,0,1,1,11.24,11.24A11.25,11.25,0,0,1,9764.13,499h0Zm94.26,11.24a11.25,11.25,0,0,1-9.88-5.88h19.76a11.25,11.25,0,0,1-9.88,5.88h0Zm30.27-2.77V483.1a0.88,0.88,0,0,1,1.65-.41l13.53,24.8h-15.17Zm0,0" transform="translate(-9756.18 -413.41)"/></svg>
