<svg id="Layer_1" data-name="Layer 1" xmlns="http://www.w3.org/2000/svg" viewBox="0 0 86.31 120"><defs><style>.cls-1{fill:#e2e6ed;}</style></defs><title>career</title><path class="cls-1" d="M7404.71,8833.24a2.48,2.48,0,0,0,1.52.52,1.79,1.79,0,0,0,.37,0,2.43,2.43,0,0,0,1.64-1l22.88-32.62a2.47,2.47,0,0,0-.3-3.17l-7.63-7.5a2.46,2.46,0,0,0-3.24-.17l-31.54,24.87-31.54-24.87a2.46,2.46,0,0,0-3.24.17l-7.64,7.5a2.47,2.47,0,0,0-.29,3.17l22.88,32.62a2.49,2.49,0,0,0,1.65,1,2.41,2.41,0,0,0,1.87-.49l5.25-4.16,8.37,10.21-17.48,51.19a2.5,2.5,0,0,0,.74,2.68l17.92,15a2.38,2.38,0,0,0,1.57.57,2.46,2.46,0,0,0,1.6-.59l17.72-15a2.48,2.48,0,0,0,.74-2.66l-17.28-51.21,8.2-10.18Zm16.59-38.79,4.59,4.53-20.18,28.78-13.33-10.5Zm-50.2,33.31L7350.92,8799l4.59-4.53,28.92,22.8Zm32.26,62.73-14.85,12.6-15-12.6,15-44.06Zm-14.88-55.57-7.27-8.86,7.17-5.66,7.19,5.68Zm0,0" transform="translate(-7345.25 -8788.73)"/></svg>