<svg xmlns="http://www.w3.org/2000/svg" viewBox="0 0 120 120" width="120" height="120"><path class="cls-1" d="M9254.31,869.87a1.94,1.94,0,0,0,1.94-1.94v-8.29s0,0,0-.07V859.5a2,2,0,0,0,0-.27v0a1.79,1.79,0,0,0-.08-0.26v0a2,2,0,0,0-.12-0.25l0,0a2,2,0,0,0-.16-0.23l0,0-0.19-.19,0,0-0.23-.17,0,0-7.36-4.47v-2.16a1.94,1.94,0,0,0-1.94-1.94h-4.82l-38.94-23.64a8.14,8.14,0,0,0-2.88-13.06,2.07,2.07,0,0,1-1.17-1.95v-1.24a8.18,8.18,0,0,0,6.22-7.93v-6.35h0.13a1.94,1.94,0,0,0,1.94-1.94V785a1.94,1.94,0,0,0-1.94-1.94h-2.21s0-.09,0-0.13a6.1,6.1,0,0,0-4.15-5.77v-8.74a1.94,1.94,0,1,0-3.89,0v8.74a6.1,6.1,0,0,0-4.15,5.77s0,0.09,0,.13H9188A1.94,1.94,0,0,0,9186,785v8.29a1.94,1.94,0,0,0,1.94,1.94h0.13v6.35a8.18,8.18,0,0,0,6.22,7.93v1.24a5.92,5.92,0,0,0,3.58,5.54,4.27,4.27,0,0,1,.92,7.38l-1.55-.94a2,2,0,0,0-2,0l-1.54.94-0.19-.15a4.27,4.27,0,0,1-1.53-3.28,1.94,1.94,0,1,0-3.89,0,8.14,8.14,0,0,0,2.15,5.52l-38.93,23.64h-4.82a1.94,1.94,0,0,0-1.94,1.94v2.16l-7.36,4.47h0l-0.23.17,0,0-0.19.19,0,0a1.76,1.76,0,0,0-.16.23l0,0a1.93,1.93,0,0,0-.12.25v0a1.85,1.85,0,0,0-.08.26v0a1.93,1.93,0,0,0,0,.27v0.06s0,0,0,.07v8.29a1.94,1.94,0,0,0,1.94,1.94h6.35v4.41h-6.35a1.94,1.94,0,0,0-1.94,1.94v8.29a1.94,1.94,0,0,0,1.94,1.94h116.11a1.94,1.94,0,0,0,1.94-1.94v-8.29a1.94,1.94,0,0,0-1.94-1.94H9248v-4.41h6.35Zm-60.26-87a2.2,2.2,0,0,1,4.41,0s0,0.09,0,.13H9194s0-.09,0-0.13h0Zm-4.15,4h12.7v4.41h-12.7v-4.41Zm2.07,14.64v-6.35h8.55v6.35a4.28,4.28,0,1,1-8.55,0h0Zm47.69,56.11v-4.41h0.44l4,2.41v2h-4.41Zm-8.29,0v-4.41h4.41v4.41h-4.41Zm-8.29,0v-4.41h4.41v4.41h-4.41Zm-8.29,0v-4.41h4.41v4.41h-4.41Zm-8.29,0v-4.41h4.41v4.41h-4.41Zm-8.29,0v-4.41h4.41v4.41h-4.41Zm-8.29,0v-4.41h4.41v4.41h-4.41Zm-8.29,0v-4.41H9186v4.41h-4.41Zm-8.29,0v-4.41h4.41v4.41h-4.41Zm-8.29,0v-4.41h4.41v4.41H9165Zm-8.29,0v-4.41h4.41v4.41h-4.41Zm-8.29,0v-2l4-2.41h0.44v4.41h-4.41Zm45.5-29.63a8.22,8.22,0,0,0,2.33.34,8.43,8.43,0,0,0,1.45-.13,7.76,7.76,0,0,0,.85-0.21l35.13,21.33h-74.9Zm-53.8,33.51h112.22V866H9140.14v-4.41Zm91.23,12.7v-4.41h4.41v4.41h-4.41Zm-8.29,0v-4.41h4.41v4.41h-4.41Zm-8.29,0v-4.41h4.41v4.41h-4.41Zm-8.29,0v-4.41h4.41v4.41h-4.41Zm-8.29,0v-4.41h4.41v4.41h-4.41Zm-8.29,0v-4.41h4.41v4.41h-4.41Zm-8.29,0v-4.41H9186v4.41h-4.41Zm-8.29,0v-4.41h4.41v4.41h-4.41Zm-8.29,0v-4.41h4.41v4.41H9165Zm-8.29,0v-4.41h4.41v4.41h-4.41Zm-8.29-4.41h4.41v4.41h-4.41v-4.41Zm103.93,12.7H9140.14v-4.41h112.22v4.41Zm-8.29-8.29h-4.41v-4.41h4.41v4.41Zm0,0" transform="translate(-9136.25 -766.46)"/></svg>
