<svg id="Layer_1" data-name="Layer 1" xmlns="http://www.w3.org/2000/svg" viewBox="0 0 120 120"><defs><style>.cls-1{fill:#e2e6ed;}</style></defs><title>charity</title><path class="cls-1" d="M7745.75,8430.69a10.1,10.1,0,0,1,6.08,6.09,2,2,0,1,0,3.77-1.33,13.94,13.94,0,0,0-8.52-8.53,2,2,0,0,0-1.34,3.77h0Zm0,0" transform="translate(-7648.41 -8418.12)"/><path class="cls-1" d="M7727.45,8485.88a2,2,0,0,0,1.92,0c22.76-12.42,35-32.84,35-45.75a22,22,0,0,0-41.95-9.28,2,2,0,1,0,3.62,1.69,18,18,0,0,1,34.32,7.59c0,11.74-11.94,30.4-32,41.71-20.05-11.31-32-30-32-41.71a18,18,0,0,1,25.21-16.5,2,2,0,1,0,1.6-3.66,22,22,0,0,0-30.81,20.16c0,12.91,12.28,33.34,35,45.75h0Z" transform="translate(-7648.41 -8418.12)"/><path class="cls-1" d="M7727.45,8485.88" transform="translate(-7648.41 -8418.12)"/><path class="cls-1" d="M7674.41,8494.12h16c2.33,0,6.3,3,9.8,5.6,4.39,3.29,8.53,6.4,12.2,6.4h12a7,7,0,0,1,4.59,1.41,2,2,0,1,0,2.83-2.83,10.63,10.63,0,0,0-7.41-2.59h-12c-2.33,0-6.3-3-9.8-5.6-4.39-3.29-8.53-6.4-12.2-6.4h-16a2,2,0,0,0,0,4h0Zm0,0" transform="translate(-7648.41 -8418.12)"/><path class="cls-1" d="M7658.41,8525.12a3,3,0,1,0-3,3,3,3,0,0,0,3-3h0Zm0,0" transform="translate(-7648.41 -8418.12)"/><path class="cls-1" d="M7767.33,8502.12a8,8,0,0,0-4.86-3.73,7.82,7.82,0,0,0-5.95.73l-23,11.2c-3.58,1.79-7.19,1.79-15.1,1.79-7.74,0-19.55-2-19.67-2a2,2,0,1,0-.66,3.94c0.5,0.08,12.26,2,20.33,2,8.3,0,12.47,0,16.87-2.2l23.13-11.26a4,4,0,1,1,3.94,7l-27,16.83c-0.06,0-5.83,3.67-18.9,3.67-11.34,0-28.85-9.65-29.1-9.79s-4.52-2.21-12.89-2.21a2,2,0,1,0,0,4c7.27,0,11,1.75,11,1.75,0.76,0.42,18.6,10.25,31,10.25,14.44,0,20.84-4.16,21.06-4.3L7764.4,8513a8,8,0,0,0,2.93-10.93h0Zm0,0" transform="translate(-7648.41 -8418.12)"/><path class="cls-1" d="M7662.41,8482.12h-12a2,2,0,1,0,0,4h12a2,2,0,0,1,2,2v44a2,2,0,0,1-2,2h-12a2,2,0,1,0,0,4h12a6,6,0,0,0,6-6v-44a6,6,0,0,0-6-6h0Zm0,0" transform="translate(-7648.41 -8418.12)"/></svg>