<svg xmlns="http://www.w3.org/2000/svg" viewBox="0 0 37.91 35.47" width="38" height="35.5"><polygon class="cls-1" points="32.67 35.47 30.09 35.47 30.09 34.22 31.43 34.22 31.43 32.88 32.67 32.88 32.67 35.47"/><rect class="cls-1" x="25.36" y="34.22" width="2.36" height="1.25"/><polygon class="cls-1" points="23 35.47 20.42 35.47 20.42 32.88 21.66 32.88 21.66 34.22 23 34.22 23 35.47"/><rect class="cls-1" x="20.42" y="27.75" width="1.25" height="2.57"/><polygon class="cls-1" points="21.66 25.18 20.42 25.18 20.42 23.85 19.08 23.85 19.08 22.6 21.66 22.6 21.66 25.18"/><polygon class="cls-1" points="17.49 25.18 16.25 25.18 16.25 22.6 18.83 22.6 18.83 23.85 17.49 23.85 17.49 25.18"/><rect class="cls-1" x="16.25" y="27.75" width="1.25" height="2.57"/><polygon class="cls-1" points="17.49 35.47 14.91 35.47 14.91 34.22 16.25 34.22 16.25 32.88 17.49 32.88 17.49 35.47"/><rect class="cls-1" x="10.18" y="34.22" width="2.36" height="1.25"/><polygon class="cls-1" points="7.82 35.47 5.24 35.47 5.24 32.88 6.48 32.88 6.48 34.22 7.82 34.22 7.82 35.47"/><rect class="cls-1" x="5.23" y="26.36" width="1.25" height="3.26"/><polygon class="cls-1" points="6.48 23.09 5.24 23.09 5.24 21.75 3.9 21.75 3.9 20.51 6.48 20.51 6.48 23.09"/><polygon class="cls-1" points="3.33 21.75 0 21.75 2.19 19.24 3.13 20.06 2.74 20.51 3.33 20.51 3.33 21.75"/><path class="cls-1" d="M7455,1179.74l-0.94-.82,2.08-2.39,0.94,0.82Zm3.64-5.44h-1.25v-3.17h1.25v3.17Z" transform="translate(-7449.8 -1162.06)"/><polygon class="cls-1" points="8.85 5.9 7.6 5.9 7.6 3.31 10.19 3.31 10.19 4.56 8.85 4.56 8.85 5.9"/><polygon class="cls-1" points="13.47 8.2 13.47 4.56 12.13 4.56 12.13 3.31 14.71 3.31 14.71 4.87 14.91 4.64 15.85 5.46 13.47 8.2"/><polygon class="cls-1" points="19.77 2.84 18.95 1.9 18.14 2.84 17.2 2.02 18.95 0 20.71 2.02 19.77 2.84"/><path class="cls-1" d="M7481.57,1178.68l-3-3.44,0.94-.82,3,3.44Zm-6-6.89-3-3.44,0.94-.82,3,3.44Z" transform="translate(-7449.8 -1162.06)"/><polygon class="cls-1" points="37.91 21.75 34.58 21.75 34.58 20.51 35.17 20.51 34.78 20.06 35.72 19.24 37.91 21.75"/><polygon class="cls-1" points="32.67 23.09 31.43 23.09 31.43 20.51 34.01 20.51 34.01 21.75 32.67 21.75 32.67 23.09"/><rect class="cls-1" x="31.43" y="26.36" width="1.25" height="3.26"/></svg>
