<svg xmlns="http://www.w3.org/2000/svg" viewBox="0 0 120 120" width="120" height="120"><path class="cls-1" d="M9575.68,425l-8.29-8.29a1.94,1.94,0,0,0-1.37-.57h-3.87l-71.23-20.46-0.07,0a4.81,4.81,0,0,0-1.55-.25,4.72,4.72,0,0,0-2.84.94l-0.17.13-0.08.07-0.05,0-22.47,19.55h-5.49a1.94,1.94,0,0,0-1.94,1.94v16.59a1.94,1.94,0,0,0,1.94,1.94h12.44a1.94,1.94,0,0,0,1.94-1.94v-6.35h6.48v74.9h-2.2a1.94,1.94,0,0,0-1.94,1.94v8.29a1.94,1.94,0,0,0,1.94,1.94h24.88a1.94,1.94,0,0,0,1.94-1.94v-8.29a1.94,1.94,0,0,0-1.94-1.94h-2.2V449.1h7.1a6.11,6.11,0,0,0,6-4.9l3.17-15.84h40v6.35a6.1,6.1,0,0,0,4.15,5.77v14.28l-7.87,9.83a1.94,1.94,0,0,0-.43,1.21V482.4a1.94,1.94,0,0,0,1.94,1.94h16.59a1.94,1.94,0,0,0,1.94-1.94V465.81a1.94,1.94,0,0,0-.43-1.21l-7.87-9.84V440.48a6.1,6.1,0,0,0,4.15-5.77v-6.35h6.35a1.94,1.94,0,0,0,1.37-3.32h0Zm-86.38-25.71a0.84,0.84,0,0,1,.8.59l4.87,16.25h-11.36l4.87-16.25a0.84,0.84,0,0,1,.81-0.59h0Zm9.73,16.85-4.62-15.41,53.65,15.41h-49Zm-16-11.71-3.51,11.71h-9.95Zm-14.38,28.3h-8.55v-12.7h8.55v12.7Zm14.25-1.56,4.07,6.61-4.07,6.61V431.21Zm6.35,37.27,4.82,7.82h-9.63Zm-6.35,2.9V458.17l4.07,6.61Zm8.63-6.61,4.07-6.61v13.22Zm-2.28-3.71-4.82-7.82h9.63Zm4.82,19.13L9489.3,488l-4.82-7.82h9.63Zm1.54-35.77-4.07-6.61,4.07-6.61v13.22Zm-1.54,4.92h-9.63l4.82-7.82Zm-7.1,42.38-4.07,6.61V485.12Zm2.28,3.71,4.82,7.82h-9.63Zm2.28-3.71,4.07-6.61v13.22Zm-2.28-57.62-3.54-5.75h7.08Zm10.5,77.45h-21v-4.41h21v4.41Zm6.84-66.35h-7.1V434.58h11l-1.77,8.85a2.21,2.21,0,0,1-2.16,1.77h0Zm4.71-14.51h-11.8v-2.33h12.27Zm50.53,27.86,4.25,5.31h-8.5Zm-6.35,21.9v-12.7h12.7v12.7h-12.7Zm8.55-45.75a2.2,2.2,0,1,1-4.41,0v-6.35h4.41v6.35Zm-91.49-10.24v-4.41h92.63l4.41,4.41h-97Zm0,0" transform="translate(-9456.25 -395.44)"/></svg>
