<svg xmlns="http://www.w3.org/2000/svg" viewBox="0 0 34.66 35.47" width="34.6" height="35.4"><path class="cls-1" d="M7006.33,1075.36v-2.3a2.26,2.26,0,0,0-2.48-2.48h-15.56c-2.1,0-3.18,1-3.18,2.48v3c0,1.55,1,2.32,3.18,2.32h15.56c1.56,0,2.48-1,2.48-3h0Zm-2.83.18h-15.56v-2.12h15.56v2.12Zm0,0" transform="translate(-6971.67 -1042.9)"/><path class="cls-1" d="M6994.31,1054.32v6.77l0.9,2.42h-1.52l-14.8-20.61-3.26,2,1,1.73v9.13h-1l0.7,5h0.35v1.5a2.16,2.16,0,0,0-1.35,2,2.09,2.09,0,0,0,.72,1.66l-3.84,3.3h1.08l3.4-2.93a2.71,2.71,0,0,0,1,.19,2,2,0,0,0,.94-0.24l3.69,3h1.11l-4.24-3.43a2.14,2.14,0,0,0,.48-1.4,0.71,0.71,0,1,0-1.41,0,0.75,0.75,0,0,1-.16.51l-0.19-.15a0.36,0.36,0,0,0-.46,0l-0.26.23a0.7,0.7,0,0,1-.41-0.71,0.87,0.87,0,0,1,.75-0.82,0.71,0.71,0,0,0,.59-0.7v-2h0.79l1-5h-1.07v-5.13l8.49,16.34v0.82h2.83v1.41h10.61v-1.41h4.24v-13.44h-10.61Zm-6.12,3.68h0l-2.89,1.88,1.48-3.81Zm-10.15-2.26h-0.71v-7.8l0.71,1.33v6.47Zm0.62-7.21-1.22-2.32,1.9-1.25Zm1.66-2.12,1.35,2.36-2.19,1.41Zm0.21,5.11,2.07-1.34-0.81,3.67Zm2.94-.14,1.52,2.22-2.29,1.46Zm-0.24,5.37,2.56-1.75-1.46,3.9Zm3.79,6.73-1.23-2.18,3.06-2.19Zm1,1.54,2.09-4.51,1.7,2.32Zm14.11-3.63h-4.95v-4.24h4.95v4.24Zm0,0" transform="translate(-6971.67 -1042.9)"/><path class="cls-1" d="M6972.38,1073.42h-0.71v1.42H6983v-1.42h-1.42v-2.12H6983v-1.42h-11.32v1.42h1.42v2.12h-0.71Zm0,0" transform="translate(-6971.67 -1042.9)"/></svg>
