<svg xmlns="http://www.w3.org/2000/svg" viewBox="0 0 119.63 120" width="120" height="120"><path class="cls-1" d="M3044.43,768.18v120h37.46l-20.79-120h-16.67Zm0,0" transform="translate(-3044.43 -768.18)"/><path class="cls-1" d="M3158.59,806.68c-2.86-2.1-6.76-5-14-5s-11.13,2.88-14,5c-2.1,1.55-3,2.19-5.48,2.19s-3.38-.64-5.48-2.19c-2.85-2.1-6.76-5-14-5s-11.13,2.88-14,5c-2.1,1.55-3,2.19-5.48,2.19s-3.38-.64-5.48-2.19a24.78,24.78,0,0,0-6.69-3.81l3.2,18.48a20.86,20.86,0,0,0,9,1.85c7.22,0,11.13-2.88,14-5,2.1-1.55,3-2.19,5.48-2.19s3.38,0.64,5.48,2.19c2.85,2.1,6.76,5,14,5s11.13-2.88,14-5c2.1-1.55,3-2.19,5.48-2.19s3.38,0.64,5.48,2.19c2.85,2.1,6.76,5,14,5V808.87c-2.51,0-3.38-.64-5.48-2.19h0Zm0,0" transform="translate(-3044.43 -768.18)"/><path class="cls-1" d="M3144.6,832.89c-7.22,0-11.13,2.88-14,5-2.1,1.55-3,2.19-5.48,2.19s-3.38-.64-5.48-2.19c-2.85-2.1-6.76-5-14-5s-11.13,2.88-14,5c-2.1,1.55-3,2.19-5.48,2.19s-3.38-.64-5.48-2.19l-0.72-.52,2.92,16.84a24.14,24.14,0,0,0,3.28.22c7.22,0,11.13-2.88,14-5,2.1-1.55,3-2.19,5.48-2.19s3.38,0.64,5.48,2.19c2.85,2.1,6.76,5,14,5s11.13-2.88,14-5c2.1-1.55,3-2.19,5.48-2.19s3.38,0.64,5.48,2.19c2.85,2.1,6.76,5,14,5V840.06c-2.51,0-3.38-.64-5.48-2.19-2.86-2.1-6.76-5-14-5h0Zm0,0" transform="translate(-3044.43 -768.18)"/><path class="cls-1" d="M3144.6,864.8c-7.22,0-11.13,2.88-14,5-2.1,1.55-3,2.19-5.48,2.19s-3.38-.64-5.48-2.19c-2.85-2.1-6.76-5-14-5s-11.13,2.88-14,5c-2.1,1.55-3,2.19-5.48,2.19H3086l2.47,14.24a21.54,21.54,0,0,0,11.72-4.88c2.1-1.55,3-2.19,5.48-2.19s3.38,0.64,5.48,2.19c2.85,2.1,6.76,5,14,5s11.13-2.88,14-5c2.1-1.55,3-2.19,5.48-2.19s3.38,0.64,5.48,2.19c2.85,2.1,6.76,5,14,5V872c-2.51,0-3.38-.64-5.48-2.19-2.86-2.1-6.76-5-14-5h0Zm0,0" transform="translate(-3044.43 -768.18)"/></svg>
