<svg xmlns="http://www.w3.org/2000/svg" viewBox="0 0 120 118.04" width="120" height="118"><path class="cls-1" d="M7415.38,8430.65c1.17,0.7,2.32,1.46,3.43,2.25a2.39,2.39,0,1,0,2.77-3.9c-1.21-.86-2.47-1.68-3.74-2.45a2.39,2.39,0,1,0-2.47,4.09h0Zm0,0" transform="translate(-7328.41 -8418.12)"/><path class="cls-1" d="M7443.55,8474.25a59,59,0,0,0-59,57,54.23,54.23,0,1,1,23.57-104.3,2.39,2.39,0,1,0,1.83-4.42,59,59,0,1,0-23.05,113.57h0.52a59,59,0,0,0,59-59,2.63,2.63,0,0,0-2.89-2.89h0Zm-50.85,56.87,18.21-18.21a2.39,2.39,0,0,0-3.38-3.38l-17.91,17.91a35.77,35.77,0,1,1,3.08,3.68h0Zm0,0" transform="translate(-7328.41 -8418.12)"/><path class="cls-1" d="M7416.24,8506.59a2.38,2.38,0,0,0,1.69-.7l3.88-3.88a2.39,2.39,0,1,0-3.38-3.38l-3.88,3.88a2.39,2.39,0,0,0,1.69,4.08h0Zm0,0" transform="translate(-7328.41 -8418.12)"/><path class="cls-1" d="M7447.71,8445.49l-4.49-4.49,1-1a2.39,2.39,0,0,0,0-3.38l-3.85-3.85a10.4,10.4,0,0,0-14.71,0l-2.14,2.14a10.41,10.41,0,0,0,0,14.71l3.85,3.85a2.39,2.39,0,0,0,3.38,0l1-1,4.49,4.49a2.39,2.39,0,0,0,3.38-3.38l-4.49-4.49,4.65-4.65,4.49,4.49a2.39,2.39,0,0,0,3.38-3.38h0Zm-18.63,2.88-2.16-2.16a5.62,5.62,0,0,1,0-8l2.14-2.14a5.62,5.62,0,0,1,8,0l2.16,2.16Zm0,0" transform="translate(-7328.41 -8418.12)"/></svg>
