<svg xmlns="http://www.w3.org/2000/svg" viewBox="0 0 119.87 115.11" width="120" height="115"><path class="cls-1" d="M13373.57,6038.57h15.29a2.52,2.52,0,0,0,2.51-2.51v-15.35a2.52,2.52,0,0,0-2.51-2.51h-15.29a2.52,2.52,0,0,0-2.51,2.51v15.35a2.52,2.52,0,0,0,2.51,2.51h0Zm2.51-15.35h10.28v10.34h-10.28v-10.34Zm0,0" transform="translate(-13281.8 -5933.97)"/><path class="cls-1" d="M13373.77,5951.67h15.09a2.51,2.51,0,0,0,0-5h-15.09a2.51,2.51,0,0,0,0,5h0Zm0,0" transform="translate(-13281.8 -5933.97)"/><path class="cls-1" d="M13373.77,5961.83h15.09a2.51,2.51,0,0,0,0-5h-15.09a2.51,2.51,0,0,0,0,5h0Zm0,0" transform="translate(-13281.8 -5933.97)"/><path class="cls-1" d="M13399.17,5936.65h-35.73a2.52,2.52,0,0,0-2.51,2.51v9.33l-27.68-14.25a2.52,2.52,0,0,0-1.91-.15,2.48,2.48,0,0,0-1.45,1.26l-47.81,94a2.49,2.49,0,0,0,1.08,3.36l31.34,16.11a2.61,2.61,0,0,0,1.15.28,2.82,2.82,0,0,0,.78-0.12,2.48,2.48,0,0,0,1.45-1.25l18-35.39,25-49.29v83.53a2.51,2.51,0,0,0,2.51,2.51h35.75a2.51,2.51,0,0,0,2.51-2.51V5939.16a2.5,2.5,0,0,0-2.51-2.51h0Zm-84.6,106.56-26.88-13.82,15.6-30.7,27,13.62Zm18-35.37-27-13.62,27.63-54.36,26.88,13.82Zm64.11,36.25H13366v-33.51h30.71v33.51Zm0-38.53H13366v-63.89h30.71v63.89Zm0,0" transform="translate(-13281.8 -5933.97)"/><path class="cls-1" d="M13301.76,6012.1l-6.87,13.62a2.5,2.5,0,0,0,1.1,3.36l13.57,6.9a2.5,2.5,0,0,0,1.13.28,2.68,2.68,0,0,0,.78-0.13,2.47,2.47,0,0,0,1.45-1.26l6.87-13.62a2.51,2.51,0,0,0-1.1-3.36l-13.57-6.9a2.52,2.52,0,0,0-1.91-.15,2.47,2.47,0,0,0-1.45,1.26h0Zm3.33,4.46,9.1,4.64-4.61,9.16-9.1-4.64Zm0,0" transform="translate(-13281.8 -5933.97)"/><path class="cls-1" d="M13334.21,5951.55l15.29,7.68a2.35,2.35,0,0,0,1.13.28,2.44,2.44,0,0,0,2.23-1.4,2.54,2.54,0,0,0-1.13-3.36l-15.3-7.68a2.51,2.51,0,0,0-2.23,4.49h0Zm0,0" transform="translate(-13281.8 -5933.97)"/><path class="cls-1" d="M13346.62,5964.94l-15.09-7.68a2.5,2.5,0,0,0-2.26,4.46l15.09,7.68a2.28,2.28,0,0,0,1.13.28,2.51,2.51,0,0,0,1.13-4.74h0Zm0,0" transform="translate(-13281.8 -5933.97)"/><path class="cls-1" d="M13341.45,5975.3l-15.09-7.68a2.5,2.5,0,0,0-2.26,4.47l15.09,7.68a2.27,2.27,0,0,0,1.13.28,2.51,2.51,0,0,0,1.13-4.74h0Zm0,0" transform="translate(-13281.8 -5933.97)"/><path class="cls-1" d="M13373.77,5972.19h15.09a2.51,2.51,0,0,0,0-5h-15.09a2.51,2.51,0,0,0,0,5h0Zm0,0" transform="translate(-13281.8 -5933.97)"/></svg>
