<svg xmlns="http://www.w3.org/2000/svg" viewBox="0 0 120 106.02" width="120" height="106"><path class="cls-1" d="M7126,8795.72h-21.45a46.74,46.74,0,0,0-1.94-5.53,2.39,2.39,0,0,0-2.2-1.46h-64.27a2.39,2.39,0,0,0-2.2,1.46,46.74,46.74,0,0,0-1.94,5.53H7010.8a2.39,2.39,0,0,0-2.39,2.39,40.05,40.05,0,0,0,8.86,25.65c5.62,6.76,13.07,10.59,21.05,10.84l0.66,1a46.66,46.66,0,0,0,20.63,16.24v5.58h-3a2.39,2.39,0,0,0,0,4.78h3v4.26h-3a2.39,2.39,0,0,0,0,4.78h3v5.63h-6.24a13,13,0,0,0-12.94,12.94v2.6a2.39,2.39,0,0,0,2.39,2.39h51a2.39,2.39,0,0,0,2.39-2.39v-2.6a13,13,0,0,0-12.94-12.94H7077v-5.63h3.2a2.39,2.39,0,1,0,0-4.78H7077v-4.26h3.2a2.39,2.39,0,0,0,0-4.78H7077v-5.58a46.84,46.84,0,0,0,28.66-51.29h17.91c-0.7,11.2-6.32,21.32-14.7,26.24a2.39,2.39,0,1,0,2.42,4.13,33.36,33.36,0,0,0,12.43-13.3,41.6,41.6,0,0,0,4.72-19.45,2.39,2.39,0,0,0-2.39-2.39h0Zm-112.76,4.78h17.68a47,47,0,0,0-.66,7.88,46.48,46.48,0,0,0,5,21.1c-11.86-2.17-21.13-14.17-22-29h0Zm70,81.11a8.17,8.17,0,0,1,8.16,8.16V8890H7045.2v-0.21a8.17,8.17,0,0,1,8.16-8.16h29.87Zm-11-10.41v5.63h-7.82v-5.63h7.82Zm-7.82-4.78v-4.26h7.82v4.26h-7.82Zm9.4-18.51a2.39,2.39,0,0,0-1.58,2.25v7.22h-7.82v-7.22a2.39,2.39,0,0,0-1.58-2.25,42.06,42.06,0,0,1-26.71-48.8,2.37,2.37,0,0,0,.21-0.89,42,42,0,0,1,1.47-4.7h61a42,42,0,0,1-25,54.38h0Zm0,0" transform="translate(-7008.41 -8788.73)"/><path class="cls-1" d="M7058.24,8835.79a28,28,0,0,1-11.92-13.94,2.39,2.39,0,0,0-4.42,1.83,32.74,32.74,0,0,0,14,16.29,2.39,2.39,0,0,0,2.31-4.18h0Zm0,0" transform="translate(-7008.41 -8788.73)"/><path class="cls-1" d="M7042.23,8817.18a2.39,2.39,0,0,0,2-2.76,36.75,36.75,0,0,1-.51-6.15,2.39,2.39,0,1,0-4.78,0,41.56,41.56,0,0,0,.58,6.95,2.39,2.39,0,0,0,2.35,2,2.29,2.29,0,0,0,.4,0h0Zm0,0" transform="translate(-7008.41 -8788.73)"/></svg>
