<svg xmlns="http://www.w3.org/2000/svg" viewBox="0 0 206.35 40" width="599" height="116.2"><defs><style>.cls-1{fill:#e2231a;}.cls-2{fill:#2c457b;}</style></defs><title>logo-full</title><path class="cls-1" d="M8694.3,5760v12.42c0,11.11,4.5,14.07,14.3,14.07H8726c10.77,0,14.59-3.25,14.59-14.07V5760c0-9.57-4-13.51-14.59-13.51h-3.74v6.4h2.21c6.45,0,8.3,1.6,8.3,7.41v11.82c0,6.32-1.85,8-8.49,8H8710.6c-6.32,0-8.49-1.47-8.49-7.92v-11.81c0-6,1.53-7.47,8.3-7.47h2.21v-6.4h-4c-11.05,0-14.3,3.65-14.3,13.51h0Z" transform="translate(-8694.3 -5746.51)"/><path class="cls-2" d="M8707.37,5763.69v5.41c0,4.83,2,6.12,6.22,6.12h7.56c4.69,0,6.35-1.41,6.35-6.12v-5.41c0-4.17-1.74-5.88-6.35-5.88h-7.56c-4.81,0-6.22,1.59-6.22,5.88h0Z" transform="translate(-8694.3 -5746.51)"/><path class="cls-2" d="M8769.2,5765.35q0,3.76-1.52,5.26t-5.63,1.5h-8.69q-4,0-5.63-1.55t-1.67-5.2v-6.21q0-4,1.6-5.53t5.7-1.51H8762q3.85,0,5.42,1.43,1.74,1.57,1.74,5.61v6.21Zm-18.41-.48a3.46,3.46,0,0,0,.77,2.62,4.57,4.57,0,0,0,2.94.68h6.27a4.71,4.71,0,0,0,3-.65,3.68,3.68,0,0,0,.71-2.68v-5.27a3.77,3.77,0,0,0-.8-2.82,4.62,4.62,0,0,0-3-.71h-6.1a4.54,4.54,0,0,0-3,.73,3.86,3.86,0,0,0-.78,2.84v5.27Z" transform="translate(-8694.3 -5746.51)"/><path class="cls-2" d="M8790.41,5765.26h4.73q0,4-1.41,5.43t-5.74,1.41h-8.8q-4.1,0-5.65-1.5t-1.55-5.49v-5.61q0-4.3,1.64-5.86t6-1.55h7.87q3.85,0,5.56,1.34,2.05,1.6,2.05,5.56h-4.73a2.74,2.74,0,0,0-.87-2.27,4.73,4.73,0,0,0-2.92-.7h-6.07q-2.37,0-3.09.67t-0.73,3v4.9q0,2.19.88,2.94a4.73,4.73,0,0,0,2.93.65h6.07a5.41,5.41,0,0,0,2.93-.54A2.76,2.76,0,0,0,8790.41,5765.26Z" transform="translate(-8694.3 -5746.51)"/><path class="cls-2" d="M8802.75,5752.29v7.61H8815v-7.61h4.73v19.81H8815v-8.26h-12.23v8.26H8798v-19.81h4.73Z" transform="translate(-8694.3 -5746.51)"/><path class="cls-2" d="M8845.87,5765.35q0,3.76-1.52,5.26t-5.63,1.5H8830q-4,0-5.63-1.55t-1.67-5.2v-6.21q0-4,1.6-5.53t5.7-1.51h8.69q3.85,0,5.42,1.43,1.74,1.57,1.74,5.61v6.21Zm-18.41-.48a3.46,3.46,0,0,0,.77,2.62,4.57,4.57,0,0,0,2.94.68h6.27a4.7,4.7,0,0,0,3-.65,3.68,3.68,0,0,0,.71-2.68v-5.27a3.77,3.77,0,0,0-.8-2.82,4.62,4.62,0,0,0-3-.71h-6.1a4.54,4.54,0,0,0-3,.73,3.87,3.87,0,0,0-.78,2.84v5.27Z" transform="translate(-8694.3 -5746.51)"/><path class="cls-2" d="M8849,5772.1v-19.81h14.25a9.13,9.13,0,0,1,5.11,1.16,4.29,4.29,0,0,1,1.7,3.82,6.15,6.15,0,0,1-.63,3.2,3.35,3.35,0,0,1-1.82,1.2A5.11,5.11,0,0,1,8870,5763a5.05,5.05,0,0,1,.88,3.25q0,3.14-1.6,4.48t-5,1.34H8849Zm4.73-16.07v4.3h9.66a1.72,1.72,0,0,0,1.44-.63,2.66,2.66,0,0,0,.5-1.69,1.74,1.74,0,0,0-2-2h-9.63Zm0,7.81v4.53h9.49a4,4,0,0,0,2.37-.45,2.49,2.49,0,0,0,.51-1.85,2.42,2.42,0,0,0-.43-1.68,3.36,3.36,0,0,0-2.28-.54h-9.66Z" transform="translate(-8694.3 -5746.51)"/><path class="cls-2" d="M8878.28,5772.1h-5.53l10.49-19.81h7l10.4,19.81h-5.56l-2.54-5h-11.71Zm4.47-8.72h7.9l-3.76-7.38h-0.23Z" transform="translate(-8694.3 -5746.51)"/><path class="cls-2" d="M8746.91,5783.21v-7.74h4.78v0.78h-3.91v7h-0.87Z" transform="translate(-8694.3 -5746.51)"/><path class="cls-2" d="M8753.33,5782.59v2.95h-0.83v-7.74h0.8l0,0.69a1.56,1.56,0,0,1,.71-0.62,2.62,2.62,0,0,1,1-.18,2,2,0,0,1,1.82.74,4.18,4.18,0,0,1,.35,2,4.44,4.44,0,0,1-.33,2,1.83,1.83,0,0,1-1.75.81,3.12,3.12,0,0,1-1-.13A1.42,1.42,0,0,1,8753.33,5782.59Zm0-2.11a3.82,3.82,0,0,0,.23,1.64,1.32,1.32,0,0,0,1.25.53,1.38,1.38,0,0,0,1.32-.53,4,4,0,0,0,.22-1.64,4.08,4.08,0,0,0-.19-1.57,1.36,1.36,0,0,0-1.31-.54,1.41,1.41,0,0,0-1.31.48A3.92,3.92,0,0,0,8753.33,5780.47Z" transform="translate(-8694.3 -5746.51)"/><path class="cls-2" d="M8761.56,5777.8h0.83l-1.66,6.12a3.12,3.12,0,0,1-.63,1.35,1.36,1.36,0,0,1-1,.37,1.65,1.65,0,0,1-.46-0.06v-0.65a1.63,1.63,0,0,0,.31,0,0.74,0.74,0,0,0,.66-0.3,6.23,6.23,0,0,0,.52-1.46h-0.35l-2-5.41h0.82l1.69,4.81Z" transform="translate(-8694.3 -5746.51)"/><path class="cls-2" d="M8763.22,5777.8h4.49v5.41h-0.83v-4.75H8764v4.75h-0.83v-5.41Z" transform="translate(-8694.3 -5746.51)"/><path class="cls-2" d="M8769.07,5777.8h4.49v5.41h-0.82v-4.75h-2.84v4.75h-0.83v-5.41Z" transform="translate(-8694.3 -5746.51)"/><path class="cls-2" d="M8778.61,5780.57v-0.78a1.78,1.78,0,0,0-.28-1.23,2.15,2.15,0,0,0-1.3-.25,2.18,2.18,0,0,0-1,.16,0.71,0.71,0,0,0-.27.67v0.15h-0.83a1.38,1.38,0,0,1,.61-1.34,3.48,3.48,0,0,1,1.54-.24,3.38,3.38,0,0,1,1.74.32,1.76,1.76,0,0,1,.62,1.59v3.59h-0.77l0-.68a1.36,1.36,0,0,1-.62.64,3.53,3.53,0,0,1-1.2.14,3,3,0,0,1-1.57-.31,1.6,1.6,0,0,1-.57-1.42,1.47,1.47,0,0,1,.56-1.34,2.84,2.84,0,0,1,1.51-.3,4,4,0,0,1,1.27.13A1,1,0,0,1,8778.61,5780.57Zm0,1.06a0.93,0.93,0,0,0-.34-0.88,3.72,3.72,0,0,0-1.46-.18,1.85,1.85,0,0,0-.93.16,0.85,0.85,0,0,0-.32.76,1.22,1.22,0,0,0,.28.93,1.48,1.48,0,0,0,1,.25,3.94,3.94,0,0,0,1.29-.13A0.87,0.87,0,0,0,8778.61,5781.63Z" transform="translate(-8694.3 -5746.51)"/><path class="cls-2" d="M8787,5781.25h0.79a2.05,2.05,0,0,1-.55,1.66,2.92,2.92,0,0,1-1.79.4,2.31,2.31,0,0,1-1.84-.59,3.63,3.63,0,0,1-.48-2.21,3.69,3.69,0,0,1,.48-2.21,2.25,2.25,0,0,1,1.82-.6,3.13,3.13,0,0,1,1.64.33,1.47,1.47,0,0,1,.62,1.35v0.17h-0.78a1.23,1.23,0,0,0-.26-0.92,1.93,1.93,0,0,0-1.22-.27,1.41,1.41,0,0,0-1.19.39,3.4,3.4,0,0,0-.28,1.72,3.33,3.33,0,0,0,.3,1.73,1.38,1.38,0,0,0,1.19.42,2,2,0,0,0,1.25-.27A1.54,1.54,0,0,0,8787,5781.25Z" transform="translate(-8694.3 -5746.51)"/><path class="cls-2" d="M8790.18,5778.46h-1.87v-0.66h4.56v0.66H8791v4.75h-0.83v-4.75Z" transform="translate(-8694.3 -5746.51)"/><path class="cls-2" d="M8794.49,5782.59v2.95h-0.82v-7.74h0.81l0,0.69a1.57,1.57,0,0,1,.71-0.62,2.62,2.62,0,0,1,1-.18,2,2,0,0,1,1.82.74,4.19,4.19,0,0,1,.35,2,4.45,4.45,0,0,1-.33,2,1.84,1.84,0,0,1-1.75.81,3.12,3.12,0,0,1-1-.13A1.43,1.43,0,0,1,8794.49,5782.59Zm0-2.11a3.86,3.86,0,0,0,.23,1.64,1.32,1.32,0,0,0,1.25.53,1.38,1.38,0,0,0,1.32-.53,4,4,0,0,0,.22-1.64,4.07,4.07,0,0,0-.19-1.57,1.35,1.35,0,0,0-1.3-.54,1.41,1.41,0,0,0-1.32.48A3.94,3.94,0,0,0,8794.49,5780.47Z" transform="translate(-8694.3 -5746.51)"/><path class="cls-2" d="M8804.17,5780.51a3.52,3.52,0,0,1-.5,2.24,2.48,2.48,0,0,1-1.89.57,2.42,2.42,0,0,1-1.87-.57,3.49,3.49,0,0,1-.51-2.22,3.55,3.55,0,0,1,.5-2.23,2.43,2.43,0,0,1,1.87-.57,2.48,2.48,0,0,1,1.88.57A3.47,3.47,0,0,1,8804.17,5780.51Zm-0.82,0a3.18,3.18,0,0,0-.31-1.73,1.55,1.55,0,0,0-1.26-.4,1.5,1.5,0,0,0-1.25.4,3.25,3.25,0,0,0-.3,1.73,3.18,3.18,0,0,0,.31,1.72,1.5,1.5,0,0,0,1.24.4,1.55,1.55,0,0,0,1.26-.4A3.16,3.16,0,0,0,8803.34,5780.51Z" transform="translate(-8694.3 -5746.51)"/><path class="cls-2" d="M8805.36,5783.21v-5.41h0.82v4.43l2.77-4.43h1v5.41h-0.83v-4.4l-2.75,4.4h-1Z" transform="translate(-8694.3 -5746.51)"/><path class="cls-2" d="M8812.59,5778.46h-1.87v-0.66h4.56v0.66h-1.87v4.75h-0.82v-4.75Z" transform="translate(-8694.3 -5746.51)"/><path class="cls-2" d="M8820.61,5780.66h-3.88a3,3,0,0,0,.29,1.61,1.52,1.52,0,0,0,1.25.39,2.65,2.65,0,0,0,1.23-.18,0.83,0.83,0,0,0,.28-0.75v-0.18h0.82a1.58,1.58,0,0,1-.6,1.46,3.55,3.55,0,0,1-1.74.3,2.37,2.37,0,0,1-1.86-.59,3.58,3.58,0,0,1-.5-2.23,3.34,3.34,0,0,1,.54-2.18,2.32,2.32,0,0,1,1.81-.61,2.42,2.42,0,0,1,1.8.57,2.81,2.81,0,0,1,.55,2v0.41Zm-0.82-.63a2,2,0,0,0-.33-1.3,1.58,1.58,0,0,0-1.2-.37,1.56,1.56,0,0,0-1.2.37,2,2,0,0,0-.32,1.3h3.05Z" transform="translate(-8694.3 -5746.51)"/><path class="cls-2" d="M8826,5783.21h-0.82v-4.76h-2.31v3.2a1.91,1.91,0,0,1-.27,1.1,1.17,1.17,0,0,1-1,.45h-0.4v-0.67h0.12a0.81,0.81,0,0,0,.61-0.17,1.24,1.24,0,0,0,.14-0.74v-3.83h4v5.41Z" transform="translate(-8694.3 -5746.51)"/><path class="cls-2" d="M8827.34,5777.8h0.83V5780h2a1.63,1.63,0,0,1,1.12.35,1.61,1.61,0,0,1,.45,1.27,1.58,1.58,0,0,1-.47,1.25,1.61,1.61,0,0,1-1.11.36h-2.81v-5.41Zm2.53,4.76a1.19,1.19,0,0,0,.79-0.21,1.34,1.34,0,0,0,0-1.5,1.27,1.27,0,0,0-.82-0.2h-1.67v1.91h1.7Z" transform="translate(-8694.3 -5746.51)"/><path class="cls-2" d="M8832.92,5777.8h0.82V5780h2.84v-2.21h0.82v5.41h-0.82v-2.54h-2.84v2.54h-0.82v-5.41Z" transform="translate(-8694.3 -5746.51)"/><path class="cls-2" d="M8838.78,5777.8h0.81V5780h2a1.42,1.42,0,0,1,1.58,1.62,1.44,1.44,0,0,1-1.58,1.62h-2.81v-5.43Zm2.52,4.76a1.21,1.21,0,0,0,.81-0.21,1.34,1.34,0,0,0,0-1.5,1.26,1.26,0,0,0-.82-0.2h-1.68v1.91h1.7Zm2.89-4.76H8845v5.43h-0.82v-5.43Z" transform="translate(-8694.3 -5746.51)"/><path class="cls-2" d="M8848.38,5780.38l1.93,2.83h-1l-1.39-2.19-1.39,2.19h-1l1.93-2.83-1.72-2.58h0.95l1.23,2,1.23-2h0.95Z" transform="translate(-8694.3 -5746.51)"/><path class="cls-2" d="M8854.59,5777.8V5780h0.32l2-2.19h1l-2.3,2.5,2.72,2.91h-1.07l-2.29-2.59h-0.32v2.59h-0.82v-5.41h0.82Z" transform="translate(-8694.3 -5746.51)"/><path class="cls-2" d="M8863.61,5780.51a3.51,3.51,0,0,1-.51,2.24,2.47,2.47,0,0,1-1.89.57,2.42,2.42,0,0,1-1.87-.57,3.49,3.49,0,0,1-.51-2.22,3.54,3.54,0,0,1,.5-2.23,2.42,2.42,0,0,1,1.87-.57,2.47,2.47,0,0,1,1.88.57A3.46,3.46,0,0,1,8863.61,5780.51Zm-0.83,0a3.18,3.18,0,0,0-.31-1.73,1.55,1.55,0,0,0-1.26-.4,1.5,1.5,0,0,0-1.25.4,3.24,3.24,0,0,0-.3,1.73,3.18,3.18,0,0,0,.31,1.72,1.5,1.5,0,0,0,1.24.4,1.55,1.55,0,0,0,1.26-.4A3.15,3.15,0,0,0,8862.78,5780.51Z" transform="translate(-8694.3 -5746.51)"/><path class="cls-2" d="M8867.85,5782.27l1.79-4.47H8871v5.41h-0.83v-4.69l-1.92,4.69h-0.72l-1.91-4.69v4.69h-0.83v-5.41h1.3Z" transform="translate(-8694.3 -5746.51)"/><path class="cls-2" d="M8872.28,5777.8h4.49v5.41h-0.82v-4.75h-2.84v4.75h-0.82v-5.41Z" transform="translate(-8694.3 -5746.51)"/><path class="cls-2" d="M8881.82,5780.57v-0.78a1.78,1.78,0,0,0-.28-1.23,3.37,3.37,0,0,0-2.31-.09,0.71,0.71,0,0,0-.27.67v0.15h-0.82a1.38,1.38,0,0,1,.61-1.34,3.48,3.48,0,0,1,1.54-.24,3.38,3.38,0,0,1,1.74.32,1.76,1.76,0,0,1,.62,1.59v3.59h-0.77l0-.68a1.36,1.36,0,0,1-.62.64,3.53,3.53,0,0,1-1.2.14,3,3,0,0,1-1.57-.31,1.6,1.6,0,0,1-.57-1.42,1.47,1.47,0,0,1,.56-1.34,2.83,2.83,0,0,1,1.5-.3,4,4,0,0,1,1.28.13A1,1,0,0,1,8881.82,5780.57Zm0,1.06a0.93,0.93,0,0,0-.34-0.88,3.72,3.72,0,0,0-1.46-.18,1.85,1.85,0,0,0-.92.16,0.84,0.84,0,0,0-.32.76,1.22,1.22,0,0,0,.28.93,1.48,1.48,0,0,0,1,.25,3.94,3.94,0,0,0,1.29-.13A0.87,0.87,0,0,0,8881.82,5781.63Z" transform="translate(-8694.3 -5746.51)"/><path class="cls-2" d="M8884,5777.8h0.83V5780h2.84v-2.21h0.83v5.41h-0.83v-2.54h-2.84v2.54H8884v-5.41Z" transform="translate(-8694.3 -5746.51)"/><path class="cls-2" d="M8889.87,5783.21v-5.41h0.82v4.43l2.77-4.43h1v5.41h-0.82v-4.4l-2.75,4.4h-1Z" transform="translate(-8694.3 -5746.51)"/><path class="cls-2" d="M8895.83,5783.21v-5.41h0.82v4.42l2.76-4.42h1v5.41h-0.82v-4.4l-2.75,4.4h-1Zm3-6.86h0.5a1,1,0,0,1-.26.8,1.57,1.57,0,0,1-1,.21,1.61,1.61,0,0,1-1-.21,1,1,0,0,1-.26-0.8h0.51a0.46,0.46,0,0,0,.15.42,1.11,1.11,0,0,0,.56.1,1.18,1.18,0,0,0,.54-0.08A0.48,0.48,0,0,0,8898.83,5776.35Z" transform="translate(-8694.3 -5746.51)"/></svg>
