<svg xmlns="http://www.w3.org/2000/svg" viewBox="0 0 90.97 120" width="90" height="120"><path class="cls-1" d="M9516.25,869.87a8.16,8.16,0,1,0-8.16-8.16,8.17,8.17,0,0,0,8.16,8.16h0Zm0-12.44a4.28,4.28,0,1,1-4.28,4.28,4.28,4.28,0,0,1,4.28-4.28h0Zm0,0" transform="translate(-9470.76 -766.46)"/><path class="cls-1" d="M9559.79,793.16a1.94,1.94,0,0,0,1.94-1.94V770.48a4,4,0,0,0-4-4h-8.29a4,4,0,0,0-4,4V771a6.07,6.07,0,0,0-4.41,0v-0.54a4,4,0,0,0-4-4h-22.81a1.94,1.94,0,0,0-1.94,1.94v0.13H9503a7.4,7.4,0,0,0-6.79,5l-18.45,39.05,0,0.05a8.14,8.14,0,0,0,1.1,8.58l0.31,0.46a29.53,29.53,0,0,0-.9,14.68c2.44,13.23,12.83,21.63,21.55,26.46v5.2H9481a6.1,6.1,0,0,0-6.09,6.09v8.42h-2.2a1.94,1.94,0,1,0,0,3.89h87.09a1.94,1.94,0,1,0,0-3.89h-2.2v-8.42a6.1,6.1,0,0,0-6.09-6.09h-18.79v-6.35a16.48,16.48,0,0,0-16.46-16.46c-0.44,0-.87,0-1.3.06l-21-30.85,9.25-29.6h9.07V785a1.94,1.94,0,0,0,1.94,1.94H9537a4,4,0,0,0,4-4v-0.54a6.07,6.07,0,0,0,4.41,0v8.84a1.94,1.94,0,0,0,1.94,1.94h0.13v4.41h-0.13a1.94,1.94,0,0,0-1.94,1.94v8.29a1.94,1.94,0,0,0,1.94,1.94h0.56l1.71,6.82a1.94,1.94,0,0,0,1.89,1.47h0.13v7.29a3.76,3.76,0,1,0,3.89,0V818h0.13a1.94,1.94,0,0,0,1.89-1.47l1.71-6.82h0.56a1.94,1.94,0,0,0,1.94-1.94v-8.29a1.94,1.94,0,0,0-1.94-1.94h-0.13v-4.41h0.13Zm-10.5-22.68a0.13,0.13,0,0,1,.13-0.13h8.29a0.13,0.13,0,0,1,.13.13v18.79h-8.55V770.48Zm-49.88,13.35-8.33,26.67a8.13,8.13,0,0,0-6.83-2.51l12.64-26.75a7.78,7.78,0,0,0,2.53,2.59h0Zm-18.55,32.27a4.28,4.28,0,0,1,8.55,0h0a4.28,4.28,0,0,1-8.55,0h0Zm1.24,19.8a27.21,27.21,0,0,1,0-9.9l19.42,28.48a16.35,16.35,0,0,0-1.38,4.09c-10.21-6-16.26-13.66-18-22.67h0Zm69.39,36.05a2.21,2.21,0,0,1,2.2,2.2v8.42h-74.9v-8.42a2.21,2.21,0,0,1,2.2-2.2h18.79v4.28a1.94,1.94,0,0,0,1.94,1.94h29a1.94,1.94,0,0,0,1.94-1.94v-4.28h18.79Zm-22.68-10.24v12.57h-25.14V861.71a12.57,12.57,0,1,1,25.14,0h0Zm-25-10.74-18.22-26.72a8.18,8.18,0,0,0,7-4.82l18.24,26.75a16.5,16.5,0,0,0-7,4.8h0Zm-0.8-70c-1.91,0-3.46-1.92-3.46-4.28s1.55-4.28,3.46-4.28h9.23v2.33h-8.42a1.94,1.94,0,1,0,0,3.89h8.42V781H9503Zm34.12,1.94a0.13,0.13,0,0,1-.13.13h-20.86v-12.7H9537a0.13,0.13,0,0,1,.13.13v12.44Zm6.09-4a2.2,2.2,0,1,1,2.2-2.2,2.21,2.21,0,0,1-2.2,2.2h0Zm14.64,22.55v4.41h-8.55v-4.41h8.55Zm-3.72,12.7H9553l-1.1-4.41h3.31Zm1.65-16.59h-4.41v-4.41h4.41v4.41Zm0,0" transform="translate(-9470.76 -766.46)"/></svg>
