<svg xmlns="http://www.w3.org/2000/svg" viewBox="0 0 36.85 35.47" height="35.4" width="36.8"><path class="cls-1" d="M7002.95,1196.06v-31.78h1.53v-2.21h-31v2.21h1.14v31.78h-4.09v1.47h36.85v-1.47h-4.48Zm-14.16-7.09a2,2,0,0,0-2.07,2h0v5h-10.58v-31.09h25.33V1196h-10.61v-5a2,2,0,0,0-2.07-2h0Zm-8.82-20.26h3.36v3.36H6980v-3.36Zm7.15,0h3.36v3.36h-3.36v-3.36Zm10.51,3.36h-3.36v-3.36h3.36v3.36Zm-17.67,3.12h3.36v3.36H6980v-3.36Zm7.15,0h3.36v3.36h-3.36v-3.36Zm10.51,3.36h-3.36v-3.36h3.36v3.36Zm-17.67,3.16h3.36v3.36H6980v-3.36Zm7.15,0h3.36v3.36h-3.36v-3.36Zm10.51,3.36h-3.36v-3.36h3.36v3.36Zm-17.67,3h3.36v3.36H6980v-3.36Zm17.67,3.36h-3.36v-3.36h3.36v3.36Zm0,0" transform="translate(-6970.57 -1162.06)"/></svg>
