<svg xmlns="http://www.w3.org/2000/svg" viewBox="0 0 120 105.7" width="120" height="105.7"><path class="cls-1" d="M517.14,5950.22a17.41,17.41,0,0,0-17.39,17.39v52A17.41,17.41,0,0,0,517.14,6037h47.19l25,18.26a3.45,3.45,0,0,0,2,.65,3.26,3.26,0,0,0,1.52-.37,3.36,3.36,0,0,0,1.84-3V6037h7.64a17.41,17.41,0,0,0,17.39-17.39v-52a17.41,17.41,0,0,0-17.39-17.39H517.14Zm-10.67,17.39a10.69,10.69,0,0,1,10.67-10.67h85.22A10.68,10.68,0,0,1,613,5967.61v52a10.69,10.69,0,0,1-10.67,10.67h-11a3.44,3.44,0,0,0-2.36,1,3.25,3.25,0,0,0-1,2.36v12.31l-20.6-15a3.39,3.39,0,0,0-2-.65H517.14a10.69,10.69,0,0,1-10.67-10.67v-52Zm0,52" transform="translate(-499.75 -5950.22)"/><path class="cls-1" d="M530.07,5972.91a3.36,3.36,0,1,0,0,6.72h59.35a3.36,3.36,0,1,0,0-6.72H530.07Zm0,0" transform="translate(-499.75 -5950.22)"/><path class="cls-1" d="M530.07,5989.18a3.36,3.36,0,1,0,0,6.72h59.35a3.36,3.36,0,1,0,0-6.72H530.07Zm0,0" transform="translate(-499.75 -5950.22)"/><path class="cls-1" d="M530.07,6005.45a3.36,3.36,0,1,0,0,6.72h59.35a3.36,3.36,0,1,0,0-6.72H530.07Zm0,0" transform="translate(-499.75 -5950.22)"/></svg>
