<svg xmlns="http://www.w3.org/2000/svg" viewBox="0 0 31.6 35.47" width="31.6" height="35.4"><path class="cls-1" d="M7477.33,1056.11c-0.55,2.11-1.84,2.58-2.53,2.67a13.94,13.94,0,0,1-2.29,3.45,4.54,4.54,0,0,1-1.44.87,6.34,6.34,0,0,1-4.66,0,4.54,4.54,0,0,1-1.44-.87,13.89,13.89,0,0,1-2.29-3.45c-0.69-.09-2-0.56-2.53-2.67a3.36,3.36,0,0,1,.22-2.74,2.14,2.14,0,0,1,.66-0.65c0-.22,0-0.51,0-0.83a3.88,3.88,0,0,1-.27-3.69,3.29,3.29,0,0,1,3.09-2.39,5.37,5.37,0,0,1,1.66-1.82,6.39,6.39,0,0,1,3.67-1.1,8.28,8.28,0,0,1,4.9,1.71c2.47,1.82,2.26,5.85,2.2,6.59a10.9,10.9,0,0,1,.12,1.52,2.13,2.13,0,0,1,.66.65,3.36,3.36,0,0,1,.23,2.74h0Zm7.22,15.72v5.73a0.81,0.81,0,0,1-.81.81h-30a0.81,0.81,0,0,1-.81-0.81v-5.73a5.68,5.68,0,0,1,3.59-5.3l7.09-2.84a0.81,0.81,0,0,1,1.06.48l1.78,4.93,0.35-1-0.56-1.37a0.81,0.81,0,0,1,.75-1.12h3.46a0.81,0.81,0,0,1,.75,1.12l-0.56,1.37,0.35,1,1.78-4.93a0.81,0.81,0,0,1,1.06-.48l7.09,2.84a5.68,5.68,0,0,1,3.59,5.3h0Zm-4.32.62a0.81,0.81,0,0,0-.81-0.81H7474a0.81,0.81,0,0,0-.81.81V1075a0.81,0.81,0,0,0,.81.81h5.45a0.81,0.81,0,0,0,.81-0.81v-2.53Zm0,0" transform="translate(-7452.95 -1042.9)"/></svg>
