<svg xmlns="http://www.w3.org/2000/svg" viewBox="0 0 120 99.78" width="120" height="99.7"><defs><style>.cls-1{fill:#2c457b;}</style></defs><title>production</title><path class="cls-1" d="M11180.34,6045a6.21,6.21,0,0,0,6.2-6.2v-12.11a6.21,6.21,0,0,0-6.2-6.2h-9v-16.61h38.18v16.61h-9a6.21,6.21,0,0,0-6.2,6.2v12.11a6.21,6.21,0,0,0,6.2,6.2H11223a6.21,6.21,0,0,0,6.2-6.2v-12.11a6.21,6.21,0,0,0-6.2-6.2h-9v-16.61h38.18v16.61h-9a6.21,6.21,0,0,0-6.2,6.2v12.11a6.21,6.21,0,0,0,6.2,6.2h22.37a6.21,6.21,0,0,0,6.2-6.2v-12.11a6.21,6.21,0,0,0-6.2-6.2h-8.94v-18.82a2.24,2.24,0,0,0-2.23-2.23H11214v-11.59h18.13a8.15,8.15,0,0,0,8.14-8.13v-26.37a8.15,8.15,0,0,0-8.14-8.14h-40.73a8.15,8.15,0,0,0-8.14,8.14v26.34a8.15,8.15,0,0,0,8.14,8.14h18.13v11.59h-40.41a2.24,2.24,0,0,0-2.23,2.23v18.82H11158a6.21,6.21,0,0,0-6.2,6.2v12.11a6.21,6.21,0,0,0,6.2,6.2h22.37v0Zm44.38-18.31v12.11a1.76,1.76,0,0,1-1.76,1.76h-22.37a1.76,1.76,0,0,1-1.76-1.76v-12.11a1.76,1.76,0,0,1,1.76-1.76H11223a1.74,1.74,0,0,1,1.76,1.76h0Zm42.64,0v12.11a1.76,1.76,0,0,1-1.76,1.76h-22.37a1.76,1.76,0,0,1-1.76-1.76v-12.11a1.76,1.76,0,0,1,1.76-1.76h22.37a1.74,1.74,0,0,1,1.76,1.76h0Zm-79.64-47v-26.34a3.71,3.71,0,0,1,3.7-3.7h40.73a3.71,3.71,0,0,1,3.7,3.7v26.34a3.71,3.71,0,0,1-3.7,3.7h-40.73a3.71,3.71,0,0,1-3.7-3.7h0Zm-31.51,59.11v-12.11a1.76,1.76,0,0,1,1.76-1.76h22.37a1.76,1.76,0,0,1,1.76,1.76v12.11a1.76,1.76,0,0,1-1.76,1.76H11158a1.76,1.76,0,0,1-1.76-1.76h0Zm0,0" transform="translate(-11151.77 -5945.23)"/></svg>
