<svg xmlns="http://www.w3.org/2000/svg" viewBox="0 0 120 120" width="120" height="120"><path class="cls-1" d="M9158,411.48a5.74,5.74,0,1,0,4.06,1.68,5.7,5.7,0,0,0-4.06-1.68h0Zm1.35,7.1a1.91,1.91,0,1,1,0-2.71,1.9,1.9,0,0,1,0,2.71h0Zm0,0" transform="translate(-9136.25 -395.44)"/><path class="cls-1" d="M9238.53,497.73a5.75,5.75,0,1,0-4.06,1.68,5.75,5.75,0,0,0,4.06-1.68h0Zm-5.42-5.42a1.91,1.91,0,1,1,0,2.71,1.91,1.91,0,0,1,0-2.71h0Zm0,0" transform="translate(-9136.25 -395.44)"/><path class="cls-1" d="M9168.72,454.09a1.91,1.91,0,1,0,2.71-2.71l-30.55-30.55,20.76-20.76,13.54,13.54-5.87,5.87a1.91,1.91,0,1,0,2.71,2.71l5.87-5.87,5.12,5.12-5.87,5.87a1.92,1.92,0,0,0,2.71,2.71l5.87-5.87,5.12,5.12-5.87,5.87a1.92,1.92,0,0,0,2.71,2.71l7.22-7.22a1.92,1.92,0,0,0,0-2.71L9163,396a1.91,1.91,0,0,0-2.71,0l-23.47,23.47a1.91,1.91,0,0,0,0,2.71Zm0,0" transform="translate(-9136.25 -395.44)"/><path class="cls-1" d="M9223.78,456.8a1.92,1.92,0,0,0-2.71,0l-7.22,7.22a1.92,1.92,0,1,0,2.71,2.71l5.87-5.87,5.12,5.12-5.87,5.87a1.92,1.92,0,0,0,2.71,2.71l5.87-5.87,5.12,5.12-5.87,5.87a1.92,1.92,0,0,0,2.71,2.71l5.87-5.87,13.54,13.54-20.76,20.76-30.55-30.55a1.91,1.91,0,1,0-2.71,2.71l31.91,31.91a1.92,1.92,0,0,0,2.71,0l23.47-23.47a1.91,1.91,0,0,0,0-2.71Zm0,0" transform="translate(-9136.25 -395.44)"/><path class="cls-1" d="M9237.69,434.76L9253.45,419a9.58,9.58,0,0,0,0-13.54l-7.22-7.22a9.59,9.59,0,0,0-13.54,0l-3.61,3.61a1.91,1.91,0,0,0,2.71,2.71l3.61-3.61a5.75,5.75,0,0,1,8.12,0l7.22,7.22a5.75,5.75,0,0,1,0,8.12l-7.67,7.67-16.7-16.7a1.91,1.91,0,0,0-2.71,0l-6.73,6.73-67.49,67.49h0l0,0.05a1.91,1.91,0,0,0-.36.56l-7.37,17.9v0l-5.26,12.77a1.91,1.91,0,0,0,1.77,2.64,1.94,1.94,0,0,0,.73-0.14l12.77-5.26h0l17.9-7.37a1.92,1.92,0,0,0,.56-0.36l0,0h0Zm-68.18,62.76a12.07,12.07,0,0,0-1.88-2.43,11.86,11.86,0,0,0-5.25-3.07l50-50a1.92,1.92,0,0,0-2.71-2.71l-50,50a11.85,11.85,0,0,0-3.07-5.25,12.07,12.07,0,0,0-2.43-1.88l64.12-64.12,6.32,6.32-7.67,7.67a1.91,1.91,0,0,0,2.71,2.71l7.67-7.67,6.32,6.32ZM9151.4,506l-5.72-5.72,6.18-15a8.25,8.25,0,0,1,2,1.48,7.54,7.54,0,0,1,2.24,6.57,1.91,1.91,0,0,0,2.22,2.22,7.55,7.55,0,0,1,6.57,2.24,8.19,8.19,0,0,1,1.48,2ZM9225,411.33l15.34,15.34-4,4L9221,415.35Zm-80.91,92.8,3.46,3.46-5.88,2.42Zm0,0" transform="translate(-9136.25 -395.44)"/></svg>
