<svg xmlns="http://www.w3.org/2000/svg" viewBox="0 0 120 120" width="120" height="120"><path class="cls-1" d="M7121.53,8495.71a54.09,54.09,0,0,0,1.4-12.07,53.47,53.47,0,0,0-25.63-45.84,2.07,2.07,0,1,0-2.17,3.51,49.39,49.39,0,0,1,23.66,42.32,49.92,49.92,0,0,1-1.18,10.65,14.19,14.19,0,0,0-2.95-.3,14.46,14.46,0,1,0,6.87,1.73h0Zm-6.87,23.09a10.35,10.35,0,1,1,10.35-10.35,10.35,10.35,0,0,1-10.35,10.35h0Zm0,0" transform="translate(-7009.14 -8417.42)"/><path class="cls-1" d="M7088.11,8529.53a49.59,49.59,0,0,1-54.18-10.91,14.4,14.4,0,1,0-3.31,2.53,53.78,53.78,0,0,0,59.08,12.21,2.07,2.07,0,1,0-1.59-3.83h0Zm-74.83-21.07a10.35,10.35,0,1,1,10.35,10.35,10.36,10.36,0,0,1-10.35-10.35h0Zm0,0" transform="translate(-7009.14 -8417.42)"/><path class="cls-1" d="M7017.41,8482h0.15a2.07,2.07,0,0,0,2.06-1.92,49.42,49.42,0,0,1,35.63-44.11,14.46,14.46,0,1,0-.59-4.13,53.56,53.56,0,0,0-39.17,47.95,2.06,2.06,0,0,0,1.92,2.2h0Zm51.73-60.43a10.35,10.35,0,1,1-10.35,10.35,10.35,10.35,0,0,1,10.35-10.35h0Zm0,0" transform="translate(-7009.14 -8417.42)"/></svg>
