<svg xmlns="http://www.w3.org/2000/svg" viewBox="0 0 120 120" width="120" height="120"><path class="cls-1" d="M4841.83,5954.58a6.09,6.09,0,1,0,6.09,6.09,6.1,6.1,0,0,0-6.09-6.09h0Zm0,8.29a2.2,2.2,0,1,1,2.2-2.2,2.21,2.21,0,0,1-2.2,2.2h0Zm0,0" transform="translate(-4781.83 -5935.92)"/><path class="cls-1" d="M4841.83,6041.41a6.09,6.09,0,1,0-6.09-6.09,6.1,6.1,0,0,0,6.09,6.09h0Zm0-8.29a2.2,2.2,0,1,1-2.2,2.2,2.21,2.21,0,0,1,2.2-2.2h0Zm0,0" transform="translate(-4781.83 -5935.92)"/><path class="cls-1" d="M4887.45,5996.05h-71a6.07,6.07,0,0,0,0-4.41h48.23a6.09,6.09,0,0,0,0-12.18h-71a6.07,6.07,0,0,0,0-4.41h48.23a14.4,14.4,0,0,0,14.39-14.39v-22.81a1.94,1.94,0,1,0-3.89,0v13a14.38,14.38,0,1,0-20.32,20.32h-44.09a6.09,6.09,0,1,0,0,12.18h71a6.07,6.07,0,0,0,0,4.41h-48.23a6.09,6.09,0,0,0,0,12.18h66.9a14.35,14.35,0,0,0,0,21h-35.8a14.4,14.4,0,0,0-14.38,14.39V6054a1.94,1.94,0,1,0,3.89,0v-8.84a14.38,14.38,0,1,0,20.32-20.32h35.8a14.38,14.38,0,1,0,0-28.77h0Zm-56.11-35.38a10.5,10.5,0,1,1,10.5,10.5,10.51,10.51,0,0,1-10.5-10.5h0Zm-43.41,14.39a2.2,2.2,0,1,1-2.2,2.2,2.21,2.21,0,0,1,2.2-2.2h0Zm74.51,10.5a2.2,2.2,0,1,1,2.2,2.2,2.21,2.21,0,0,1-2.2-2.2h0Zm-51.71,6.09a2.2,2.2,0,1,1-2.2,2.2,2.21,2.21,0,0,1,2.2-2.2h0Zm41.6,43.67a10.5,10.5,0,1,1-10.5-10.5,10.51,10.51,0,0,1,10.5,10.5h0Zm35.12-14.39a10.5,10.5,0,1,1,10.5-10.5,10.51,10.51,0,0,1-10.5,10.5h0Zm0,0" transform="translate(-4781.83 -5935.92)"/><path class="cls-1" d="M4887.45,6004.34a6.09,6.09,0,1,0,6.09,6.09,6.1,6.1,0,0,0-6.09-6.09h0Zm0,8.29a2.2,2.2,0,1,1,2.2-2.2,2.21,2.21,0,0,1-2.2,2.2h0Zm0,0" transform="translate(-4781.83 -5935.92)"/></svg>
