<svg xmlns="http://www.w3.org/2000/svg" viewBox="0 0 120 119.26" width="120" height="119"><path class="cls-1" d="M7725.64,8109.5a6.22,6.22,0,0,0-4.42-1.83,6.38,6.38,0,0,0-1.19.11l-27.52-27.52,5.33-5.33a2.19,2.19,0,0,0,0-3.09l-1.35-1.35,20.25-20.25a2.19,2.19,0,0,0-1.4-3.73A41,41,0,0,0,7684,8058l-1.36-1.36a2.19,2.19,0,0,0-3.09,0l-21.73,21.73a2.19,2.19,0,0,0,0,3.1l2.09,2.09-3.83,3.83-2.09-2.09a2.19,2.19,0,0,0-3.09,0l-7.82,7.82a2.19,2.19,0,0,0,0,3.09l15.21,15.21a2.19,2.19,0,0,0,3.09,0l7.82-7.82a2.19,2.19,0,0,0,0-3.09l-2.09-2.09,3.83-3.83,2.1,2.09a2.19,2.19,0,0,0,3.09,0l5.33-5.33,27.53,27.53a6.25,6.25,0,0,0,1.72,5.62l32.64,32.64a6.26,6.26,0,0,0,8.85,0l6.11-6.11a6.27,6.27,0,0,0,0-8.85Zm-15.74-58.62-16.51,16.51-6.32-6.32a36.64,36.64,0,0,1,22.83-10.19h0Zm-50.09,55.89-12.12-12.12,4.73-4.73,12.12,12.12Zm4.18-11.46-4.83-4.83,3.83-3.84,4.83,4.84Zm10.57-3.29-12.12-12.12,18.63-18.64,12.12,12.12Zm14.85-8.66,26.77,26.77-4.87,4.87-26.77-26.77Zm65.78,64.54-6.11,6.11a1.88,1.88,0,0,1-2.66,0l-32.64-32.64a1.88,1.88,0,0,1,0-2.66l6.12-6.12a1.88,1.88,0,0,1,2.66,0l32.64,32.64a1.88,1.88,0,0,1,0,2.66h0Zm0,0" transform="translate(-7642.41 -8046.41)"/><path class="cls-1" d="M7714.9,8095.69a2.19,2.19,0,0,0,3.09,3.09l4.67-4.67a25.22,25.22,0,0,0,7.39-20.69,14.08,14.08,0,0,1,4.7-12.12,13.79,13.79,0,0,1,3.29-2.15l-1.8,5.76a9.36,9.36,0,1,0,17.87,5.57l1.86-6a14,14,0,0,1-7.65,20.67,26.11,26.11,0,0,0-10.43,6.33L7726.46,8103a2.19,2.19,0,1,0,3.09,3.09l11.43-11.43a21.71,21.71,0,0,1,8.68-5.26,18.46,18.46,0,0,0,7.35-4.5,18.41,18.41,0,0,0-.43-26.44,2.19,2.19,0,0,0-3.59.94l-3.06,9.81a5,5,0,0,1-9.51-3l3-9.7a2.19,2.19,0,0,0-2.44-2.81,18.27,18.27,0,0,0-9.14,4.3,18.46,18.46,0,0,0-6.16,15.89,20.87,20.87,0,0,1-6.14,17.11Zm0,0" transform="translate(-7642.41 -8046.41)"/><path class="cls-1" d="M7704.19,8125.23a25.22,25.22,0,0,0-7.39,20.69,14.08,14.08,0,0,1-4.7,12.12,13.74,13.74,0,0,1-3.29,2.15l1.8-5.76a9.36,9.36,0,0,0-17.87-5.57l-1.86,6a14,14,0,0,1,7.65-20.67,26.09,26.09,0,0,0,10.43-6.33l11.62-11.62a2.19,2.19,0,0,0-3.09-3.09l-11.62,11.62a21.71,21.71,0,0,1-8.68,5.26,18.46,18.46,0,0,0-7.35,4.5,18.41,18.41,0,0,0,.43,26.44,2.19,2.19,0,0,0,3.59-.94l3.06-9.81a5,5,0,0,1,9.51,3l-3,9.7a2.19,2.19,0,0,0,2.09,2.84,2.08,2.08,0,0,0,.35,0,18.37,18.37,0,0,0,15.3-20.2,20.87,20.87,0,0,1,6.13-17.11,2.19,2.19,0,0,0-3.09-3.09h0Zm0,0" transform="translate(-7642.41 -8046.41)"/></svg>
