<svg xmlns="http://www.w3.org/2000/svg" viewBox="0 0 37.38 35.47" width="37.3" height="35.4"><path class="cls-1" d="M6999.5,1314c-0.18-.11-0.74-0.26-0.89-0.37l-3.15,2.07-2.56-2.56,2.2-3.51a3.21,3.21,0,0,1-.14-0.33l-4.05-.72,0-3.94,3-.51-1.47-1.44a6.85,6.85,0,0,1-4.34,1.6h0a6.81,6.81,0,0,1-4.13-1.43l-1.5,1.43h-2.93a4,4,0,0,0-3.23,1.42c-2.41,2.78-2,8.78-1.82,10.62h25.49ZM6982,1296.9a7.47,7.47,0,0,0,1.92,4.25,6.21,6.21,0,0,0,1.65,1.26,5.39,5.39,0,0,0,5.06,0,6,6,0,0,0,1-.63,6.67,6.67,0,0,0,.69-0.63,7.45,7.45,0,0,0,1.91-4.23h0.06a2.09,2.09,0,0,0,1.93-2.22,2.32,2.32,0,0,0-.8-1.8h-14.23a2.32,2.32,0,0,0-.8,1.8,2.13,2.13,0,0,0,1.66,2.19h0Zm29.72,10.57v-1.7l-3.55-.64a6.4,6.4,0,0,0-.76-1.84l2.06-2.95-1.21-1.21-3,2.06a6.29,6.29,0,0,0-1.84-.76l-0.63-3.54h-1.7l-0.64,3.55a6.39,6.39,0,0,0-1.84.76l-2.95-2.06-1.21,1.21,2.06,3a6.3,6.3,0,0,0-.76,1.84l-3.54.63v1.7l3.55,0.64a6.39,6.39,0,0,0,.76,1.84l-2.07,2.95,1.21,1.21,3-2.06a6.3,6.3,0,0,0,1.84.76l0.63,3.54h1.7l0.64-3.55a6.4,6.4,0,0,0,1.84-.76l2.95,2.06,1.21-1.21-2.06-3a6.31,6.31,0,0,0,.76-1.84Zm-9.73,1.78a2.63,2.63,0,1,1,2.63-2.63,2.63,2.63,0,0,1-2.63,2.63h0Zm-16.59-25.82a9.3,9.3,0,0,0-4.44,5.36l-0.14.45h-1.17v2.56h17.23v-2.56h-1.15l-0.14-.45a9.26,9.26,0,0,0-4.44-5.34V1289a1.71,1.71,0,0,1-.16.63,1.61,1.61,0,0,1-1.41.88H6987a1.61,1.61,0,0,1-1.58-1.37,0.84,0.84,0,0,1,0-.23v-5.51Zm1.6,6.43h2.56a0.94,0.94,0,0,0,.84-0.51,0.88,0.88,0,0,0,.12-0.45v-6.73a1.6,1.6,0,0,0-.08-0.45,1.29,1.29,0,0,0-1.19-.82H6987a0.94,0.94,0,0,0-.94.84s0,0.08,0,.12v7a1,1,0,0,0,.16.55,1,1,0,0,0,.8.41h0Zm0,0" transform="translate(-6974.31 -1280.89)"/></svg>
