<?xml version="1.0" standalone="no"?>
<!DOCTYPE svg PUBLIC "-//W3C//DTD SVG 20010904//EN"
 "http://www.w3.org/TR/2001/REC-SVG-20010904/DTD/svg10.dtd">
<svg version="1.0" xmlns="http://www.w3.org/2000/svg"
 width="16.000000pt" height="16.000000pt" viewBox="0 0 16.000000 16.000000"
 preserveAspectRatio="xMidYMid meet">
<metadata>
Created by potrace 1.11, written by Peter Selinger 2001-2013
</metadata>
<g transform="translate(0.000000,16.000000) scale(0.022857,-0.022857)"
fill="#000000" stroke="none">
<path d="M262 653 c-6 -2 -10 -8 -7 -12 2 -5 -7 -7 -20 -5 -14 1 -25 -1 -25
-6 0 -4 -12 -11 -27 -15 -29 -7 -89 -48 -110 -75 -7 -8 -13 -24 -13 -35 0 -17
-2 -17 -10 -5 -7 11 -10 4 -10 -27 0 -35 5 -45 29 -62 15 -11 31 -18 35 -14 3
3 6 1 6 -6 0 -8 8 -11 20 -8 11 3 18 2 15 -3 -2 -4 6 -7 20 -7 27 0 69 33 60
48 -4 5 -2 9 2 9 5 0 14 15 21 34 18 50 72 101 111 104 20 1 30 -1 26 -8 -4
-6 3 -8 17 -6 13 3 29 5 36 5 7 1 11 5 8 10 -3 5 7 14 23 21 25 10 28 15 22
38 -7 27 -8 27 -104 28 -53 0 -97 -3 -97 -8 0 -4 -5 -8 -11 -8 -5 0 -7 5 -4
10 7 11 6 11 -13 3z"/>
<path d="M516 573 c-29 -7 -77 -59 -82 -88 -4 -24 0 -31 58 -97 15 -17 25 -35
22 -40 -3 -4 2 -11 11 -14 13 -6 14 -8 3 -15 -10 -7 -11 -9 0 -9 7 0 10 -4 7
-10 -3 -5 -1 -10 4 -10 18 0 13 -13 -18 -48 -30 -36 -34 -79 -12 -121 10 -17
15 -19 36 -9 13 6 22 15 19 19 -3 5 0 9 7 9 7 0 9 3 6 7 -4 3 0 11 9 17 13 10
20 28 23 59 1 5 5 6 9 3 4 -2 9 4 10 15 4 42 6 49 13 49 4 0 10 7 13 16 4 10
2 13 -7 8 -9 -5 -9 -4 1 7 7 8 12 40 12 81 0 58 -4 75 -30 116 -16 26 -30 43
-30 37 0 -5 -4 -4 -8 3 -10 14 -47 22 -76 15z"/>
<path d="M41 343 c-1 -17 6 -39 15 -47 8 -9 12 -16 7 -16 -4 0 -3 -4 2 -8 6
-4 17 -20 25 -35 14 -28 130 -156 130 -144 0 4 8 0 18 -8 9 -8 22 -16 27 -17
6 0 16 -8 23 -17 10 -12 12 -12 6 -1 -6 12 -5 13 7 3 17 -14 112 -16 103 -1
-3 5 2 8 12 6 10 -2 19 3 19 10 0 7 7 17 15 22 8 5 12 10 8 10 -4 0 -3 11 2
25 5 14 6 25 2 25 -4 0 -8 10 -9 21 -2 26 -43 71 -59 65 -6 -2 -17 1 -24 7 -9
9 -11 9 -7 1 7 -12 -58 -26 -69 -15 -9 10 -44 7 -44 -3 0 -6 -4 -5 -9 3 -5 7
-13 11 -19 7 -19 -11 -54 33 -55 71 0 7 -9 15 -19 19 -10 3 -18 10 -18 15 0 5
-9 9 -20 9 -11 0 -20 4 -20 8 0 5 -7 9 -15 9 -8 0 -12 -4 -9 -9 3 -4 1 -8 -5
-8 -5 0 -12 6 -14 13 -3 6 -6 -2 -6 -20z"/>
</g>
</svg>
