<?xml version="1.0" encoding="utf-8"?>
<!DOCTYPE svg PUBLIC "-//W3C//DTD SVG 1.1//EN" "http://www.w3.org/Graphics/SVG/1.1/DTD/svg11.dtd">
<svg version="1.1" id="content-wordpress" xmlns="http://www.w3.org/2000/svg" xmlns:xlink="http://www.w3.org/1999/xlink" x="0px"
	 y="0px" width="800px" height="600px" viewBox="0 0 800 600" enable-background="new 0 0 800 600" xml:space="preserve">
<rect x="0" fill="#0074a2" width="800" height="600"/>
<path fill="#FFFFFF" d="M399.19,198C342.843,198,297,243.767,297,299.992C297,356.241,342.843,402,399.19,402
	C455.545,402,501,356.241,501,299.992C501,243.767,455.545,198,399.19,198L399.19,198z M307.306,299.992
	c0-13.284,2.862-25.913,7.962-37.318l43.831,119.862C328.447,367.666,307.306,336.3,307.306,299.992L307.306,299.992z
	 M399.19,391.716c-9.015,0-17.721-1.326-25.951-3.741l27.565-79.957l27.846,77.229l0.663,1.26
	C419.769,389.867,409.896,391.716,399.19,391.716z M411.463,257.001c5.533-0.289,10.512-0.868,10.512-0.868
	c4.946-0.587,4.366-7.854-0.588-7.56c0,0-14.489,1.167-24.09,1.167c-9.032,0-24.192-1.167-24.192-1.167
	c-4.964-0.299-5.545,7.268-0.599,7.56c0,0,4.685,0.58,9.638,0.868l14.319,39.154l-20.113,60.18l-33.456-99.334
	c5.535-0.289,10.52-0.869,10.52-0.869c4.942-0.586,4.367-7.853-0.587-7.559c0,0-14.874,1.167-24.485,1.167
	c-1.728,0-3.756-0.044-5.916-0.121c16.428-24.888,44.67-41.329,76.766-41.329c23.92,0,45.314,9.136,61.66,24.078l-1.192-0.069
	c-9.021,0-15.422,7.841-15.422,16.283c0,7.562,4.361,13.948,9.017,21.509c3.499,6.107,7.573,13.948,7.573,25.289
	c0,7.84-3.029,16.951-6.986,29.637l-9.176,30.567L411.463,257.001L411.463,257.001z M444.996,379.268l28.063-80.982
	c5.235-13.086,6.987-23.549,6.987-32.844c0-3.379-0.23-6.509-0.618-9.428c7.17,13.056,11.251,28.043,11.251,43.988
	C490.677,333.833,472.313,363.367,444.996,379.268z"/>
</svg>