<?xml version="1.0" encoding="utf-8"?>
<svg version="1.1" id="content-joomla" xmlns="http://www.w3.org/2000/svg" xmlns:xlink="http://www.w3.org/1999/xlink" x="0px"
	 y="0px" viewBox="0 0 800 600" style="enable-background:new 0 0 800 600;" xml:space="preserve">
<style type="text/css">
	.st0{fill:#1B63A2;}
	.st1{fill:#FFFFFF;}
</style>
<rect class="st0" width="800" height="600"/>
<path class="st1" d="M441.1,311.4l-1,1.1l-1.9,0.2c-1.6-0.2-4.4-0.5-21-20.5c-10.5,20.5-12.2,20.5-14.1,20.5
	c-2-0.1-3.6-0.2-14.7-19.3c-14.9,18.7-18.3,19.2-19.4,19.3l-0.6,0c-3.3,0-8.7-4.7-16-14l-10.5,8.8c8,38.6,58.1,64.2,58.1,64.2
	s51.6-27.9,58.3-63.7l-15.4-12.2C443.6,308.6,441.8,310.6,441.1,311.4z"/>
<path class="st1" d="M368.6,300.4c3.6-0.5,20.3-21.9,20.3-21.9s12.5,21.7,14.3,21.9c1.9,0.1,13.5-23.2,13.5-23.2
	s18.6,22.9,21.6,23.2c3,0.3,0.8-20.8,0.8-20.8l26.2,20.8c0-34.5-26.8-62.7-60.7-65.1c2.3-8.1,7.7-21.3,17.9-21.3v-6.5
	c-15.5,0-22.2,18.3-24.6,27.7c-35.1,1.1-63.2,29.8-63.2,65.2l18.2-15.4C352.9,285,365,300.9,368.6,300.4z"/>
</svg>
