<?xml version="1.0" encoding="utf-8"?>
<!DOCTYPE svg PUBLIC "-//W3C//DTD SVG 1.1//EN" "http://www.w3.org/Graphics/SVG/1.1/DTD/svg11.dtd">
<svg version="1.1" id="icon-grid-slider" xmlns="http://www.w3.org/2000/svg" xmlns:xlink="http://www.w3.org/1999/xlink"
	 x="0px" y="0px" width="40px" height="40px" viewBox="0 0 40 40" enable-background="new 0 0 40 40" xml:space="preserve">
<path fill="#575656" d="M1,3v16h18V3H1z M17,17H3V5h14V17z"/>
<path fill="#575656" d="M21,3v16h18V3H21z M37,17H23V5h14V17z"/>
<path fill="#575656" d="M1,21v16h18V21H1z M17,35H3V23h14V35z"/>
<path fill="#575656" d="M21,21v16h18V21H21z M37,35H23V23h14V35z"/>
<polygon fill="#575656" points="15,11 15,12 14,12 14,13 13,13 13,14 11,14 11,13 12,13 12,12 13,12 13,11 12,11 12,10 11,10 11,9
	13,9 13,10 14,10 14,11 "/>
<polygon fill="#575656" points="7,11 7,12 8,12 8,13 9,13 9,14 7,14 7,13 6,13 6,12 5,12 5,11 6,11 6,10 7,10 7,9 9,9 9,10 8,10
	8,11 "/>
<polygon fill="#575656" points="35,11 35,12 34,12 34,13 33,13 33,14 31,14 31,13 32,13 32,12 33,12 33,11 32,11 32,10 31,10 31,9
	33,9 33,10 34,10 34,11 "/>
<polygon fill="#575656" points="27,11 27,12 28,12 28,13 29,13 29,14 27,14 27,13 26,13 26,12 25,12 25,11 26,11 26,10 27,10 27,9
	29,9 29,10 28,10 28,11 "/>
<polygon fill="#575656" points="15,29 15,30 14,30 14,31 13,31 13,32 11,32 11,31 12,31 12,30 13,30 13,29 12,29 12,28 11,28 11,27
	13,27 13,28 14,28 14,29 "/>
<polygon fill="#575656" points="7,29 7,30 8,30 8,31 9,31 9,32 7,32 7,31 6,31 6,30 5,30 5,29 6,29 6,28 7,28 7,27 9,27 9,28 8,28
	8,29 "/>
<polygon fill="#575656" points="35,29 35,30 34,30 34,31 33,31 33,32 31,32 31,31 32,31 32,30 33,30 33,29 32,29 32,28 31,28 31,27
	33,27 33,28 34,28 34,29 "/>
<polygon fill="#575656" points="27,29 27,30 28,30 28,31 29,31 29,32 27,32 27,31 26,31 26,30 25,30 25,29 26,29 26,28 27,28 27,27
	29,27 29,28 28,28 28,29 "/>
</svg>