<?xml version="1.0" encoding="utf-8"?>
<!DOCTYPE svg PUBLIC "-//W3C//DTD SVG 1.1//EN" "http://www.w3.org/Graphics/SVG/1.1/DTD/svg11.dtd">
<svg version="1.1" id="content-twitter" xmlns="http://www.w3.org/2000/svg" xmlns:xlink="http://www.w3.org/1999/xlink" x="0px"
	 y="0px" width="800px" height="600px" viewBox="0 0 800 600" enable-background="new 0 0 800 600" xml:space="preserve">
<rect fill="#55ACEE" width="800" height="600"/>
<path fill="#FFFFFF" d="M515,228.137c-8.463,3.754-17.557,6.293-27.102,7.434c9.741-5.842,17.225-15.094,20.748-26.118
	c-9.117,5.41-19.218,9.339-29.966,11.456c-8.606-9.177-20.87-14.909-34.442-14.909c-26.062,0-47.189,21.137-47.189,47.207
	c0,3.701,0.418,7.303,1.224,10.759c-39.218-1.969-73.987-20.763-97.262-49.325c-4.062,6.973-6.389,15.082-6.389,23.734
	c0,16.378,8.331,30.827,20.993,39.293c-7.736-0.244-15.013-2.368-21.374-5.904c-0.004,0.197-0.004,0.395-0.004,0.594
	c0,22.873,16.266,41.953,37.852,46.291c-3.96,1.078-8.128,1.654-12.432,1.654c-3.04,0-5.996-0.296-8.878-0.848
	c6.006,18.756,23.432,32.404,44.08,32.786c-16.15,12.661-36.495,20.208-58.604,20.208c-3.81,0-7.565-0.223-11.256-0.659
	c20.883,13.396,45.686,21.21,72.333,21.21c86.795,0,134.258-71.936,134.258-134.318c0-2.047-0.047-4.082-0.137-6.107
	C500.674,245.918,508.674,237.604,515,228.137z"/>
</svg>
