<?xml version="1.0" encoding="utf-8"?>
<!DOCTYPE svg PUBLIC "-//W3C//DTD SVG 1.1//EN" "http://www.w3.org/Graphics/SVG/1.1/DTD/svg11.dtd">
<svg version="1.1" id="content-audio" xmlns="http://www.w3.org/2000/svg" xmlns:xlink="http://www.w3.org/1999/xlink" x="0px"
	 y="0px" width="800px" height="600px" viewBox="0 0 800 600" enable-background="new 0 0 800 600" xml:space="preserve">
<rect x="0" fill="#007cbc" width="800" height="600"/>
<path fill="#FFFFFF" d="M491,210l-125.168,22.027v100.882c-9.261-3.729-21.764-4.313-34.611-0.823
	c-23.128,6.271-38.621,23.359-34.58,38.164c4.02,14.791,26.044,21.713,49.172,15.432c21.287-5.775,36.095-20.699,35.186-34.574
	v-89.851l94.834-16.869v75.2c-9.271-3.765-21.808-4.357-34.678-0.865c-23.13,6.283-38.621,23.357-34.58,38.172
	c4.019,14.783,26.043,21.701,49.172,15.432c21.027-5.71,35.729-20.354,35.208-34.084l0.044,0.029V210H491z M342.271,372.671
	c-14.214,3.862-27.42,0.812-29.488-6.801c-2.08-7.623,7.756-16.925,21.98-20.784c14.213-3.861,27.42-0.813,29.5,6.811
	C366.33,359.511,356.493,368.811,342.271,372.671z M452.203,359.305c-14.212,3.862-27.417,0.811-29.485-6.803
	c-2.081-7.611,7.757-16.911,21.979-20.771c14.213-3.859,27.419-0.813,29.499,6.812C476.266,346.146,466.43,355.456,452.203,359.305z
	"/>
</svg>