<?xml version="1.0" encoding="utf-8"?>
<!DOCTYPE svg PUBLIC "-//W3C//DTD SVG 1.1//EN" "http://www.w3.org/Graphics/SVG/1.1/DTD/svg11.dtd">
<svg version="1.1" id="content-iframe" xmlns="http://www.w3.org/2000/svg" xmlns:xlink="http://www.w3.org/1999/xlink" x="0px"
	 y="0px" width="800px" height="600px" viewBox="0 0 800 600" enable-background="new 0 0 800 600" xml:space="preserve">
<rect x="0" fill="#007cbc" width="800" height="600"/>
<path fill="#FFFFFF" d="M430.295,312.029c0,1.106-0.602,2.123-1.573,2.662l-51.478,28.297c-0.465,0.25-0.966,0.382-1.467,0.382
	c-0.54,0-1.072-0.146-1.551-0.425c-0.926-0.547-1.489-1.541-1.489-2.609v-56.601c0-1.077,0.563-2.072,1.489-2.618
	c0.928-0.546,2.074-0.562,3.018-0.045l51.478,28.303C429.696,309.906,430.295,310.923,430.295,312.029z"/>
<path fill="#FFFFFF" d="M295,219v162h210V219H295z M347,231c3.31,0,6,2.69,6,6s-2.69,6-6,6c-3.312,0-6-2.69-6-6S343.69,231,347,231z
	 M330,231c3.31,0,6,2.69,6,6s-2.69,6-6,6c-3.312,0-6-2.69-6-6S326.69,231,330,231z M313,231c3.31,0,6,2.69,6,6s-2.69,6-6,6
	c-3.312,0-6-2.69-6-6S309.69,231,313,231z M493,369H307V255h186V369z"/>
</svg>