<?xml version="1.0" encoding="utf-8"?>
<!DOCTYPE svg PUBLIC "-//W3C//DTD SVG 1.1//EN" "http://www.w3.org/Graphics/SVG/1.1/DTD/svg11.dtd">
<svg version="1.1" id="content-video" xmlns="http://www.w3.org/2000/svg" xmlns:xlink="http://www.w3.org/1999/xlink" x="0px"
	 y="0px" width="800px" height="600px" viewBox="0 0 800 600" enable-background="new 0 0 800 600" xml:space="preserve">
<rect x="0" fill="#007cbc" width="800" height="600"/>
<path fill="#FFFFFF" d="M441.244,300.717c0,1.333-0.716,2.566-1.873,3.205l-61.324,33.902c-0.543,0.301-1.143,0.445-1.738,0.445
	c-0.644,0-1.275-0.164-1.847-0.502c-1.104-0.658-1.774-1.854-1.774-3.149v-67.802c0-1.297,0.67-2.493,1.774-3.15
	c1.095-0.648,2.463-0.675,3.584-0.055l61.324,33.901C440.531,298.161,441.244,299.384,441.244,300.717z"/>
<path fill="#FFFFFF" d="M295,219v162h210V219H295z M493,369H307V231h186V369z"/>
</svg>