<?xml version="1.0" encoding="utf-8"?>
<!DOCTYPE svg PUBLIC "-//W3C//DTD SVG 1.1//EN" "http://www.w3.org/Graphics/SVG/1.1/DTD/svg11.dtd">
<svg version="1.1" id="preview-audio" xmlns="http://www.w3.org/2000/svg" xmlns:xlink="http://www.w3.org/1999/xlink" x="0px"
	 y="0px" width="30px" height="30px" viewBox="0 0 30 30" enable-background="new 0 0 30 30" xml:space="preserve">
<rect fill="#575655" width="30" height="30"/>
<path fill="#FFFFFF" d="M22,8l-9.627,1.691v7.745c-0.712-0.285-1.675-0.33-2.663-0.063c-1.779,0.48-2.971,1.793-2.66,2.93
	c0.31,1.137,2.004,1.668,3.783,1.186c1.638-0.443,2.777-1.59,2.707-2.654v-6.898l7.294-1.295v5.773
	c-0.714-0.289-1.678-0.335-2.668-0.066c-1.779,0.482-2.971,1.793-2.66,2.932c0.311,1.135,2.004,1.666,3.783,1.185
	c1.617-0.438,2.748-1.563,2.708-2.616L22,17.85V8z M10.56,20.49c-1.093,0.296-2.109,0.062-2.269-0.522
	c-0.16-0.586,0.597-1.3,1.691-1.596c1.093-0.297,2.109-0.063,2.269,0.522C12.411,19.479,11.655,20.193,10.56,20.49z M19.016,19.464
	c-1.093,0.296-2.108,0.062-2.268-0.522c-0.16-0.584,0.596-1.299,1.689-1.596c1.094-0.296,2.109-0.062,2.27,0.523
	C20.867,18.453,20.109,19.168,19.016,19.464z"/>
</svg>