<?xml version="1.0" encoding="utf-8"?>
<!DOCTYPE svg PUBLIC "-//W3C//DTD SVG 1.1//EN" "http://www.w3.org/Graphics/SVG/1.1/DTD/svg11.dtd">
<svg version="1.1" id="icon-widgetkit" xmlns="http://www.w3.org/2000/svg" xmlns:xlink="http://www.w3.org/1999/xlink" x="0px"
	 y="0px" width="24px" height="24px" viewBox="0 0 24 24" enable-background="new 0 0 24 24" xml:space="preserve">
<path fill="#FFFFFF" d="M21.404,22.329c-1.927,1.106-4.273,0.842-5.896-0.477c-0.441-0.34-0.814-0.747-1.081-1.204
	c-0.022-0.036-0.034-0.07-0.057-0.104c-0.021-0.031-0.04-0.064-0.06-0.095c-0.688-1.177-0.845-2.51-0.563-3.733
	c0.13-1.14,0.304-2.202-0.428-3.457c-0.01-0.021-0.024-0.042-0.024-0.042c-0.016-0.021-0.025-0.038-0.027-0.059
	c-0.246-0.418-0.525-0.743-0.824-1.003c0.348-0.205,0.724-0.364,1.119-0.534l0.141-0.062c1.325-0.41,2.451-1.281,3.177-2.458
	c0.002,0.597,0.105,1.175,0.43,1.737c0.013,0.019,0.024,0.033,0.036,0.053c-0.001,0,0.013,0.027,0.026,0.047
	c0.66,1.14,1.845,1.515,3.047,2.039c1.075,0.349,2.04,1.038,2.709,2.03c0.012,0.018,0.018,0.027,0.027,0.04
	c0.049,0.079,0.101,0.157,0.147,0.24C24.737,17.757,23.887,20.906,21.404,22.329z M20.48,14.826
	c-1.674-0.956-3.807-0.385-4.771,1.269c-0.965,1.662-0.39,3.778,1.28,4.736c1.673,0.958,3.805,0.385,4.768-1.274
	C22.726,17.901,22.155,15.783,20.48,14.826z M16.618,8.526c-0.023,0.036-0.042,0.068-0.062,0.103
	c-0.023,0.032-0.037,0.066-0.056,0.1c-0.685,1.176-1.768,1.981-2.979,2.35c-1.061,0.456-2.073,0.84-2.8,2.094
	c-0.012,0.024-0.024,0.047-0.024,0.047c-0.012,0.022-0.023,0.034-0.033,0.057c-0.254,0.429-0.4,0.844-0.476,1.244
	c-0.275-0.178-0.552-0.387-0.839-0.603c-0.119-0.084-0.238-0.175-0.359-0.265c-0.947-0.834-2.164-1.343-3.433-1.422H5.548
	c-0.017-0.002-0.029-0.004-0.043-0.004c-0.078-0.002-0.154-0.005-0.229-0.007c0.534-0.305,1.002-0.688,1.338-1.264
	c0.011-0.016,0.019-0.035,0.027-0.056c0,0.001,0.018-0.025,0.028-0.042c0.665-1.143,0.404-2.346,0.256-3.641
	C6.692,6.119,6.815,4.942,7.35,3.871c0.006-0.016,0.013-0.027,0.021-0.045c0.043-0.083,0.089-0.165,0.136-0.248
	C8.94,1.111,12.115,0.268,14.6,1.69c1.925,1.104,2.874,3.25,2.524,5.305C17.051,7.548,16.881,8.069,16.618,8.526z M12.001,2.767
	c-1.93,0-3.494,1.552-3.494,3.467c0,1.916,1.566,3.466,3.496,3.466c1.927,0,3.493-1.551,3.493-3.467
	C15.493,4.317,13.927,2.767,12.001,2.767z M5.525,12.74c1.203,0.078,2.297,0.557,3.139,1.309c1.056,0.775,1.981,1.601,3.311,1.598
	c0.021,0,0.042,0,0.061-0.006c0,0,0.029,0.006,0.052,0.006c0.462,0,0.872-0.101,1.257-0.267c-0.005,0.356-0.044,0.712-0.091,1.095
	l-0.02,0.149c-0.312,1.381-0.096,2.823,0.616,4.055c-0.495-0.241-1.055-0.398-1.759-0.396c-0.022,0-0.051,0-0.051,0
	c-0.023,0-0.044,0-0.065,0c-1.461,0-2.312,0.675-3.242,1.36c-0.926,0.86-2.172,1.384-3.54,1.389
	c-0.039-0.005-0.076-0.005-0.114-0.007c-0.04,0.002-0.079,0.007-0.12,0.007c-0.533,0-1.073-0.122-1.587-0.328
	C1.403,21.973,0,20.09,0,17.878c0-2.841,2.323-5.149,5.191-5.149c0.096,0,0.192,0.003,0.287,0.007
	C5.494,12.735,5.508,12.74,5.525,12.74z M3.457,14.859c-1.67,0.956-2.24,3.077-1.277,4.732c0.965,1.659,3.1,2.227,4.771,1.268
	c1.67-0.96,2.242-3.077,1.277-4.729C7.264,14.471,5.128,13.898,3.457,14.859z"/>
</svg>