<?xml version="1.0" encoding="utf-8"?>
<!DOCTYPE svg PUBLIC "-//W3C//DTD SVG 1.1//EN" "http://www.w3.org/Graphics/SVG/1.1/DTD/svg11.dtd">
<svg version="1.1" id="icon-widgetkit" xmlns="http://www.w3.org/2000/svg" xmlns:xlink="http://www.w3.org/1999/xlink" x="0px"
	 y="0px" width="18px" height="18px" viewBox="0 0 18 18" enable-background="new 0 0 18 18" xml:space="preserve">
<path fill="#888888" d="M16.053,16.996c-1.445,0.83-3.206,0.633-4.423-0.355c-0.332-0.256-0.61-0.561-0.812-0.904
	c-0.018-0.023-0.025-0.055-0.041-0.078s-0.029-0.051-0.046-0.07c-0.515-0.881-0.635-1.883-0.422-2.801
	c0.099-0.854,0.228-1.652-0.317-2.592c-0.009-0.016-0.021-0.029-0.021-0.029c-0.012-0.02-0.019-0.031-0.023-0.047
	c-0.18-0.313-0.391-0.557-0.616-0.752c0.262-0.154,0.544-0.271,0.841-0.398l0.106-0.047c0.992-0.307,1.837-0.961,2.381-1.844
	c0.004,0.445,0.077,0.881,0.322,1.3c0.01,0.016,0.019,0.023,0.026,0.043c0,0,0.009,0.02,0.021,0.033
	c0.496,0.854,1.384,1.135,2.285,1.526c0.808,0.262,1.53,0.779,2.032,1.523c0.009,0.016,0.013,0.023,0.021,0.031
	c0.037,0.059,0.074,0.115,0.113,0.178C18.551,13.566,17.914,15.93,16.053,16.996z M15.36,11.369
	c-1.256-0.717-2.854-0.289-3.58,0.951c-0.726,1.248-0.294,2.836,0.959,3.555c1.256,0.717,2.855,0.289,3.577-0.957
	C17.043,13.676,16.615,12.088,15.36,11.369z M12.462,6.645c-0.018,0.026-0.074,0.126-0.088,0.151
	c-0.514,0.881-1.324,1.485-2.232,1.761C9.345,8.9,8.585,9.188,8.041,10.129c-0.008,0.02-0.02,0.035-0.02,0.035
	c-0.009,0.016-0.019,0.023-0.025,0.041c-0.19,0.32-0.298,0.633-0.356,0.932c-0.207-0.133-0.413-0.289-0.629-0.449
	c-0.089-0.064-0.177-0.131-0.269-0.201C6.031,9.861,5.117,9.48,4.167,9.42H4.16c-0.013,0-0.021-0.002-0.033-0.002
	C4.069,9.416,4.011,9.414,3.957,9.412c0.4-0.23,0.751-0.516,1.004-0.95C4.97,8.455,4.975,8.439,4.982,8.425
	c0,0,0.013-0.021,0.021-0.033C5.5,7.535,5.305,6.633,5.194,5.664C5.018,4.837,5.11,3.956,5.513,3.151
	C5.517,3.139,5.523,3.13,5.528,3.118c0.034-0.062,0.067-0.123,0.103-0.185c1.076-1.849,3.457-2.482,5.319-1.417
	c1.442,0.827,2.154,2.438,1.895,3.979C12.787,5.908,12.66,6.3,12.462,6.645z M8.999,2.325c-1.445,0-2.62,1.164-2.62,2.602
	s1.174,2.599,2.623,2.599c1.445,0,2.621-1.163,2.621-2.602C11.618,3.487,10.445,2.325,8.999,2.325z M4.145,9.805
	c0.902,0.057,1.722,0.418,2.353,0.98c0.793,0.582,1.487,1.201,2.482,1.199c0.019,0,0.033,0,0.047-0.008c0,0,0.023,0.008,0.039,0.008
	c0.347,0,0.653-0.074,0.943-0.203c-0.005,0.266-0.034,0.537-0.07,0.82l-0.017,0.113c-0.232,1.037-0.07,2.119,0.462,3.041
	c-0.371-0.182-0.791-0.301-1.318-0.299c-0.016,0-0.037,0-0.037,0c-0.018,0-0.031,0-0.049,0c-1.096,0-1.733,0.508-2.432,1.02
	c-0.694,0.645-1.628,1.039-2.654,1.043c-0.029-0.004-0.057-0.004-0.086-0.006c-0.03,0.002-0.06,0.006-0.09,0.006
	c-0.399,0-0.805-0.092-1.191-0.248C1.052,16.729,0,15.318,0,13.658c0-2.131,1.743-3.863,3.893-3.863
	c0.072,0,0.144,0.002,0.215,0.008C4.12,9.803,4.13,9.805,4.145,9.805z M2.593,11.396c-1.253,0.715-1.681,2.307-0.958,3.547
	c0.724,1.242,2.325,1.668,3.578,0.951c1.252-0.721,1.681-2.309,0.959-3.549C5.448,11.102,3.845,10.676,2.593,11.396z"/>
</svg>
