<?xml version="1.0" encoding="utf-8"?>
<!DOCTYPE svg PUBLIC "-//W3C//DTD SVG 1.1//EN" "http://www.w3.org/Graphics/SVG/1.1/DTD/svg11.dtd">
<svg version="1.1" id="icon-widgetkit" xmlns="http://www.w3.org/2000/svg" xmlns:xlink="http://www.w3.org/1999/xlink" x="0px"
	 y="0px" width="20px" height="20px" viewBox="0 0 20 20" enable-background="new 0 0 20 20" xml:space="preserve">
<path fill="#ffffff" d="M17.836,18.774c-1.606,0.921-3.563,0.703-4.914-0.397c-0.369-0.284-0.679-0.623-0.902-1.004
	c-0.019-0.027-0.028-0.06-0.045-0.088c-0.018-0.025-0.034-0.054-0.051-0.078c-0.572-0.979-0.706-2.092-0.469-3.112
	c0.109-0.948,0.253-1.835-0.354-2.879c-0.009-0.018-0.022-0.033-0.022-0.033c-0.012-0.021-0.02-0.034-0.026-0.052
	c-0.2-0.347-0.434-0.617-0.684-0.834c0.29-0.172,0.603-0.303,0.934-0.443l0.118-0.052c1.102-0.341,2.041-1.067,2.646-2.049
	c0.003,0.495,0.085,0.979,0.358,1.445c0.01,0.018,0.02,0.027,0.029,0.047c0,0,0.01,0.022,0.023,0.037
	c0.551,0.949,1.537,1.262,2.538,1.697c0.898,0.288,1.701,0.864,2.259,1.692c0.009,0.017,0.014,0.026,0.023,0.034
	c0.042,0.065,0.083,0.129,0.126,0.197C20.612,14.962,19.904,17.588,17.836,18.774z M17.066,12.521
	c-1.395-0.796-3.172-0.322-3.977,1.057c-0.807,1.385-0.328,3.151,1.066,3.95c1.395,0.796,3.172,0.319,3.974-1.064
	C18.935,15.084,18.461,13.318,17.066,12.521z M13.846,7.272c-0.019,0.029-0.082,0.139-0.097,0.167
	c-0.571,0.979-1.472,1.65-2.482,1.956c-0.884,0.383-1.728,0.7-2.334,1.747c-0.008,0.021-0.021,0.04-0.021,0.04
	c-0.01,0.017-0.021,0.025-0.028,0.044c-0.211,0.357-0.332,0.704-0.395,1.036c-0.23-0.147-0.46-0.32-0.7-0.499
	c-0.099-0.071-0.197-0.146-0.299-0.223c-0.789-0.695-1.804-1.119-2.86-1.185H4.622c-0.014,0-0.024-0.002-0.036-0.002
	c-0.065-0.003-0.13-0.005-0.19-0.007c0.445-0.255,0.835-0.573,1.116-1.054C5.521,9.282,5.527,9.266,5.535,9.25
	c0,0,0.015-0.023,0.023-0.037c0.553-0.952,0.336-1.954,0.213-3.032c-0.196-0.917-0.093-1.897,0.354-2.79
	c0.005-0.014,0.012-0.024,0.018-0.038c0.036-0.068,0.074-0.136,0.114-0.205c1.195-2.054,3.84-2.758,5.909-1.574
	c1.604,0.919,2.395,2.709,2.105,4.42C14.207,6.453,14.067,6.888,13.846,7.272z M9.999,2.473c-1.607,0-2.911,1.293-2.911,2.89
	S8.393,8.25,10.002,8.25c1.606,0,2.912-1.292,2.912-2.89C12.909,3.764,11.605,2.473,9.999,2.473z M4.605,10.782
	c1.002,0.064,1.913,0.464,2.614,1.089c0.88,0.646,1.652,1.335,2.758,1.333c0.02,0,0.037,0,0.052-0.009c0,0,0.026,0.009,0.044,0.009
	c0.385,0,0.725-0.083,1.047-0.225c-0.005,0.295-0.037,0.596-0.078,0.91l-0.018,0.127c-0.259,1.151-0.078,2.353,0.513,3.379
	c-0.412-0.201-0.879-0.335-1.464-0.332c-0.019,0-0.042,0-0.042,0c-0.02,0-0.035,0-0.054,0c-1.217,0-1.926,0.563-2.701,1.132
	c-0.772,0.716-1.81,1.155-2.95,1.158c-0.032-0.003-0.063-0.003-0.096-0.005c-0.033,0.002-0.067,0.005-0.1,0.005
	c-0.444,0-0.894-0.101-1.324-0.275C1.169,18.475,0,16.907,0,15.065c0-2.369,1.936-4.293,4.325-4.293c0.08,0,0.16,0.002,0.239,0.007
	C4.577,10.779,4.589,10.782,4.605,10.782z M2.881,12.55c-1.392,0.796-1.868,2.563-1.064,3.942s2.583,1.853,3.975,1.056
	c1.391-0.8,1.867-2.566,1.065-3.942C6.052,12.223,4.272,11.749,2.881,12.55z"/>
</svg>