<?xml version="1.0" encoding="utf-8"?>
<svg xmlns="http://www.w3.org/2000/svg" viewBox="0 0 144 144">
	<path fill="#5D710E" d="M22,22v101h101V22H22z M118,118H27V27h91V118z"/>

	<path fill-rule="evenodd" fill="#778E19" d="M132,79l-4,1l4-6l-4,2l7-10h-3l-4,5l-3-1l-6,5l5-8v-2l4-7v-3h-2h-3l-2-1l-6,4v-4l-3-1
		l-5,3l-1-1h-3l5-4l-1-3l-6,5l-2-1l4-6l-1-3l-7,4l9-10l-1-3l-10,7l6-8l-1-2h-3l-2,2l-3-1l-5,2l3-4l-6-1l-9,5l3-5v-2l-3-1l-6,5h-2
		l-4,3l5-9l-6-1l-7,8l2-5h-4L40,37l3,3l-8,9l2,1l-2,3l1,2l5,1l1,3l-4,2v-2c0,0-0.3,0-0.8,0c-0.6,0-1.3,0-1.3,0l-1,1l-3-1v-2l-5-3
		l-8,5l-1,2c0,0,2.3-0.5,3-1s2,0,2,0l1,1l-4,1l-5,3l-1,2l1,1h1l4-3h3c0,0-0.3,0.2-0.7,0.6C20.2,67.5,14,73,14,73l3,3l-6,3l-2,3v7h2
		l-1,2l5-3v2h4l7-4l-7,7l2,2l2-1l2,1l-7,6l1,2l4-3l5,4l8-7l3,1l3,1l-5,5l4,3l-16,14l6,1c0,0,26.8-1,50-1c13.4,0,32.8,2.4,37-6
		c4.6-9.3,5-18,5-18s0.5,0,1.3,0c1.5,0,3.8,0,3.8,0l2-6l-1-4l4-5L132,79z"/>

	<path fill="#5D710E" d="M122,87l-3-4h-5l4-7l-4-6l-6,3v3l-4,5l-2-8l-4-1l3-4v-4l-5,1l-4,3h-2l5-6l3-1v-4h-3l-3,2l-11,6l-2-1l7-4
		l-3-4l-4,3l-9,1l4-5h-4l-2,3l-2-1l1-1l-2-1l-1,2h-1l2-2l7-7l-2-2l-7,4v-2l-2-1l-9,7l-3-1l3-3l-3-2l4-5l5-1h5l3-3l2,1l9-12l-2-2
		l-2,1l-6,5h-3l-4,3l6-10l-5-1l-10,9l3-6l-3,1l-10,7l1,5l-7,8l2,2l-2,3l2,2l4,1v2l-3,1l-5,1l-1-3l-5-3l-10,6h7l-10,6l1,3l7-5l2,2
		l-10,7l3,2l-7,5l-1,9l2,1l-1,1l2,1l3-3l2,1l7-4l-5,7l1,2l4-1l-5,5l-1,3l5-2l3,3l10-6l5,1l-4,4v3l3,3l-14,13h4l91-4V98l6-2l2-6v-4
		L122,87z M92,46l-1-3l-1,1l-1-1l3-6L81,47v3l2,1L92,46z"/>

	<polygon fill-rule="evenodd" fill="#FFFFFF" points="91,77 32,128 37,128 91,81 118,101 118,97"/>

	<path fill="#FFFFFF" d="M91,84l-51,44h78v-24L91,84z M91,114h-7v-7h7V114z M91,106h-7v-7h7V106z M99,114h-7v-7h7V114z M99,106h-7 v-7h7V106z"/>

	<path fill-rule="evenodd" fill="#778E19" d="M58,78l8-9l-5,3l-2-1l-6,2l5-6l-5,3c0,0-1.7-0.5-2-1s5-4,5-4h-5L40,75v5l3,3l4,1l-3,4
	 	l1,2l7-3l-1,4l4-2l11-10l-7,2L58,78z"/>
</svg>
