<?xml version="1.0" encoding="utf-8"?>
<!DOCTYPE svg PUBLIC "-//W3C//DTD SVG 1.1//EN" "http://www.w3.org/Graphics/SVG/1.1/DTD/svg11.dtd">
<svg version="1.1" id="icon-popover" xmlns="http://www.w3.org/2000/svg" xmlns:xlink="http://www.w3.org/1999/xlink" x="0px"
	 y="0px" width="40px" height="40px" viewBox="0 0 40 40" enable-background="new 0 0 40 40" xml:space="preserve">
<path fill="#575656" d="M31.548,20.012c-1.933,0-3.506-1.571-3.506-3.502c0-1.931,1.573-3.502,3.506-3.502s3.505,1.571,3.505,3.502
	C35.053,18.441,33.48,20.012,31.548,20.012z M31.548,15.009c-0.827,0-1.503,0.673-1.503,1.501c0,0.828,0.676,1.501,1.503,1.501
	c0.828,0,1.502-0.673,1.502-1.501C33.05,15.682,32.376,15.009,31.548,15.009z"/>
<path fill="#575656" d="M11,14H0V3h11V14z M1.944,12.055h7.111v-7.11H1.944V12.055z"/>
<polygon fill="#575656" points="8,8 6.001,8 6.001,6 5.001,6 5.001,8 3,8 3,9 5.001,9 5.001,11 6.001,11 6.001,9 8,9 "/>
<path fill="#575656" d="M13,5v2.001h25V34.43L26.29,22.71l-3.251,3.252l-6.859-6.865L4,31.287V16H2v21h38V5H13z M4,34.998v-0.879
	L16.18,21.93L27.24,33l1.41-1.412l-4.199-4.214l1.839-1.832l9.446,9.44"/>
</svg>
