<?xml version="1.0" encoding="utf-8"?>
<!DOCTYPE svg PUBLIC "-//W3C//DTD SVG 1.1//EN" "http://www.w3.org/Graphics/SVG/1.1/DTD/svg11.dtd">
<svg version="1.1" id="content-joomla" xmlns="http://www.w3.org/2000/svg" xmlns:xlink="http://www.w3.org/1999/xlink" x="0px"
	 y="0px" width="800px" height="600px" viewBox="0 0 800 600" enable-background="new 0 0 800 600" xml:space="preserve">
<rect x="0" fill="#1B63A2" width="800" height="600"/>
<path fill="#FFFFFF" d="M335.486,297.37c-11.391-11.427-14.778-27.497-10.471-42.013c-11.396-2.476-19.704-12.674-19.704-24.717
	c0-14.212,11.391-25.64,25.25-25.64c12.625,0,23.097,9.259,24.938,21.311c13.86-3.08,28.945,0.618,39.423,11.436l1.534,1.542
	l-18.782,18.542l-1.234-1.242c-6.155-6.175-16.01-6.175-22.168,0c-6.16,5.876-6.16,16.069,0,21.941l42.188,42.01l-18.783,18.84
	L335.486,297.37z"/>
<path fill="#FFFFFF" d="M360.121,280.071l42.188-42.325c11.391-11.436,27.404-14.831,41.88-10.817
	C445.729,214.575,456.507,205,469.136,205c14.158,0,25.557,11.428,25.557,25.64c0,12.978-9.55,23.484-22.172,25.336
	c4.001,14.212,0.613,30.273-10.778,41.394l-1.232,1.55l-18.779-18.849l1.537-1.542c5.854-6.179,5.854-16.065,0-21.941
	c-6.161-6.175-16.01-6.175-22.174,0l-42.186,42.332L360.121,280.071L360.121,280.071z"/>
<path fill="#FFFFFF" d="M444.492,374.609c-14.468,4.629-30.792,0.92-42.183-10.5l-1.231-1.243l18.478-18.841l1.536,1.227
	c6.164,6.18,16.013,6.18,22.174,0c5.854-5.873,5.854-15.746,0-21.925l-42.188-42.021l18.478-18.841l42.187,42.004
	c10.778,10.825,14.779,25.956,11.394,39.865C485.448,346.186,495,356.688,495,369.656C495,383.564,483.606,395,469.443,395
	C457.122,395,446.96,386.338,444.492,374.609L444.492,374.609z"/>
<path fill="#FFFFFF" d="M437.104,321.779l-42.183,42.33c-10.783,10.809-25.868,14.52-39.729,11.115
	C352.424,386.659,342.569,395,330.25,395c-13.859,0-25.25-11.438-25.25-25.346c0-12.047,8.313-22.242,19.4-25.021
	c-3.384-13.903,0.309-29.343,11.084-40.168l1.542-1.532l18.784,18.846l-1.541,1.547c-6.16,6.179-6.16,16.052,0,21.925
	c6.159,6.179,16.013,6.179,22.168,0l42.188-42.315L437.104,321.779L437.104,321.779z"/>
</svg>