<?xml version="1.0" encoding="utf-8"?>
<!DOCTYPE svg PUBLIC "-//W3C//DTD SVG 1.1//EN" "http://www.w3.org/Graphics/SVG/1.1/DTD/svg11.dtd">
<svg version="1.1" id="content-woocommerce" xmlns="http://www.w3.org/2000/svg" xmlns:xlink="http://www.w3.org/1999/xlink" x="0px"
	 y="0px" width="800px" height="600px" viewBox="0 0 800 600" enable-background="new 0 0 800 600" xml:space="preserve">
<rect x="0" fill="#9B5C8F" width="800" height="600"/>
<path fill="#FFFFFF" d="M208.677,378.176c-5.196-2.894-10.394-5.787-15.59-8.682c-7.419-4.133-14.818-8.301-22.278-12.358
	c-1.104-0.601-2.495-0.948-3.754-0.95c-28.987-0.053-57.974-0.039-86.961-0.041c-10.853-0.002-19.351-6.881-21.533-17.512
	c-0.314-1.533-0.313-3.148-0.315-4.727c-0.02-23.532,0.139-47.066-0.077-70.596c-0.106-11.505,7.991-19.906,16.939-21.594
	c1.671-0.315,3.39-0.544,5.085-0.544c62.479-0.028,124.956-0.028,187.434-0.019c10.779,0.001,19.311,6.79,21.594,17.276
	c0.453,2.084,0.54,4.28,0.543,6.424c0.031,18.999,0.032,37.999,0.023,56.999c-0.004,8.037,1.155,17.199-3.412,24.317
	c-3.981,6.205-10.728,9.912-18.083,9.942c-21.692,0.088-43.385,0.033-65.078,0.033c-0.815,0-1.63,0-2.97,0
	c3.026,7.478,5.919,14.621,8.812,21.766C208.929,378,208.803,378.088,208.677,378.176
	C203.48,375.282,208.803,378.088,208.677,378.176z M119.716,307.559c3.626,10.949,8.178,21.45,15.536,30.469
	c2.058,2.521,4.396,5.007,7.086,6.773c4.146,2.725,8.846,0.733,10.245-4.019c0.487-1.659,0.56-3.505,0.499-5.253
	c-0.395-11.313,0.663-22.533,2.409-33.67c1.997-12.743,4.103-25.478,9.878-37.268c1.92-3.919-0.155-8.339-4.204-10.329
	c-6.531-3.21-10.581,2.192-12.927,7.545c-4.715,10.76-6.961,22.168-8.738,33.691c-0.647,4.194-1.14,8.416-1.758,13.05
	c-0.349-0.877-0.572-1.33-0.709-1.808c-2.134-7.41-4.311-14.809-6.354-22.244c-0.903-3.283-1.271-6.729-2.342-9.948
	c-1.959-5.897-8.355-7.067-12.435-2.407c-0.825,0.944-1.534,2.027-2.124,3.138c-4.008,7.558-7.966,15.141-11.945,22.714
	c-2.761,5.252-5.529,10.501-8.37,15.896c-0.194-0.51-4.911-25.008-7.152-36.96c-0.929-4.954-1.254-10.61-3.051-15.334
	c-1.892-4.973-8.425-5.261-12.351-2.689c-2.892,1.896-3.781,4.923-3.229,8.194c3.925,23.199,6.927,47.2,14.762,69.484
	c0.831,2.364,1.938,4.703,3.321,6.783c1.869,2.812,4.595,3.19,7.461,1.392c0.905-0.568,1.832-1.213,2.498-2.027
	c1.879-2.301,3.911-4.549,5.371-7.108c3.042-5.336,5.788-10.841,8.593-16.312c2.836-5.526,5.504-10.914,8.44-16.75
	C118.73,304.459,119.206,306.016,119.716,307.559z M277.479,285.616c-0.296-1.796-0.882-3.558-1.475-5.287
	c-6.429-18.752-28.883-21.787-40.146-9.083c-12.319,13.896-15.941,30.209-10.234,47.919c4.166,12.928,18.232,19.624,30.954,14.928
	c15.688-5.794,21.392-25.95,21.792-41.005C278.414,291.37,277.95,288.478,277.479,285.616z M204.486,329.541
	c2.89-2.857,5.577-6.135,7.544-9.674c7.077-12.734,9.151-26.227,4.201-40.196c-6.387-18.025-28.739-21.112-39.954-8.309
	c-9.612,10.976-14.419,24.957-12.11,39.501c1.057,6.66,3.057,13.58,8.038,18.394c4.424,4.276,10.481,6.276,16.566,6.278
	C194.925,335.537,200.118,333.864,204.486,329.541z"/>
<path fill="#FFFFFF" d="M486.788,331.682c-3.461,0-6.741,0-10.022,0c-1.901,0-3.809-0.065-5.707,0.022
	c-1.219,0.058-1.657-0.388-1.773-1.585c-0.587-6.055-1.253-12.105-1.88-18.158c-0.811-7.816-1.61-15.635-2.67-23.546
	c-0.153,0.467-0.341,0.927-0.457,1.403c-3.268,13.348-6.55,26.69-9.754,40.054c-0.322,1.351-0.774,1.906-2.229,1.844
	c-2.786-0.118-5.584-0.12-8.37,0.003c-1.399,0.063-1.81-0.521-2.116-1.748c-3.374-13.451-6.802-26.889-10.219-40.329
	c-0.107-0.42-0.254-0.83-0.689-1.246c-1.444,14.354-2.89,28.708-4.345,43.167c-5.486,0-10.848,0-16.513,0
	c2.737-21.463,5.469-42.862,8.214-64.379c7.359,0,14.622,0,22.169,0c2.402,11.578,4.818,23.22,7.305,35.193
	c1.118-5.519,2.106-10.745,3.247-15.938c1.317-5.999,2.742-11.976,4.203-17.942c0.136-0.554,0.853-1.374,1.308-1.38
	c7.101-0.087,14.2-0.061,21.568-0.061C480.963,288.561,483.858,309.996,486.788,331.682z"/>
<path fill="#FFFFFF" d="M509.925,288.352c-0.616,6.112-1.24,12.223-1.851,18.335c-0.785,7.883-1.546,15.771-2.376,23.647
	c-0.05,0.474-0.612,1.271-0.948,1.276c-5.18,0.08-10.36,0.056-15.695,0.056c0.704-5.567,1.373-10.897,2.054-16.226
	c1.717-13.449,3.441-26.898,5.158-40.35c0.29-2.263,0.501-4.539,0.892-6.783c0.083-0.476,0.8-1.197,1.232-1.202
	c6.905-0.075,13.811-0.053,21.023-0.053c2.405,11.567,4.794,23.065,7.249,34.873c2.592-11.75,5.123-23.231,7.654-34.712
	c0.659-0.071,1.091-0.158,1.523-0.159c6.531-0.008,13.063,0.016,19.597-0.026c1.165-0.007,1.614,0.303,1.782,1.555
	c2.71,20.348,5.485,40.688,8.235,61.032c0.083,0.605,0.067,1.229,0.104,1.953c-5.738,0-11.35,0-17.136,0
	c-1.521-14.459-3.037-28.859-4.554-43.261c-0.102-0.002-0.203-0.006-0.305-0.009c-3.477,14.388-6.953,28.772-10.479,43.37
	c-3.683,0-7.348,0.053-11.006-0.072c-0.417-0.014-1.009-0.963-1.166-1.57c-2.664-10.295-5.273-20.606-7.895-30.915
	c-0.918-3.61-1.835-7.221-2.752-10.831C510.155,288.306,510.039,288.328,509.925,288.352z"/>
<path fill="#FFFFFF" d="M409.025,300.128c-0.736,4.138-1.184,9.364-2.638,14.294c-3.815,12.924-14.063,19.748-27.494,18.863
	c-13.902-0.917-22.215-7.76-25.407-21.398c-2.351-10.045-2.438-20.145,1.189-29.966c3.793-10.27,12.516-16.306,23.439-16.612
	c4.735-0.133,9.384,0.278,13.806,2.084c9.224,3.771,13.757,11.211,15.614,20.542C408.263,291.585,408.46,295.339,409.025,300.128z
	 M370.419,299.387c-0.024,3.55,0.393,6.314,0.694,9.462c0.108,1.125,0.396,2.248,0.732,3.332c0.934,3,2.62,5.334,5.864,6.137
	c4.906,1.217,9.305-1.36,10.766-6.547c1.543-5.477,1.911-11.123,1.324-16.756c-0.337-3.236-1.049-6.491-2.068-9.58
	c-0.93-2.822-3.062-4.782-6.188-5.276c-4.453-0.704-7.893,1.198-9.229,5.948C371.112,290.381,370.546,296.406,370.419,299.387z"/>
<path fill="#FFFFFF" d="M661.416,331.674c-6.102,0-11.858,0.035-17.614-0.063c-0.507-0.01-1.188-0.805-1.472-1.387
	c-4.184-8.597-8.312-17.22-12.455-25.832c-0.271-0.562-0.561-1.113-1.163-1.646c0,9.555,0,19.107,0,28.796
	c-5.931,0-11.604,0-17.416,0c0-21.392,0-42.786,0-64.292c0.32-0.062,0.676-0.19,1.027-0.188c7.734,0.048,15.475-0.042,23.2,0.221
	c5.456,0.187,10.63,1.691,15.146,4.939c10.443,7.514,9.645,23.037-1.501,29.484c-0.483,0.28-0.961,0.567-1.611,0.951
	C652.153,312.279,656.719,321.839,661.416,331.674z M628.621,295.219c3.021-0.119,4.542-0.146,6.979-1.021
	c2.65-0.951,4.637-4.039,4.461-6.871c-0.334-5.415-5.526-8.841-11.44-7.509C628.621,284.765,628.621,289.722,628.621,295.219z"/>
<path fill="#FFFFFF" d="M725.093,317.922c5.944,0,11.759,0,17.693,0c0,4.604,0,9.064,0,13.645c-11.691,0-23.335,0-35.125,0
	c0-21.383,0-42.782,0-64.35c11.623,0,23.303,0,35.095,0c0,4.505,0,8.966,0,13.602c-5.894,0-11.702,0-17.664,0
	c0,3.992,0,7.813,0,11.825c4.998,0,9.979,0,15.099,0c0,4.52,0,8.854,0,13.368c-4.979,0-9.962,0-15.098,0
	C725.093,310.006,725.093,313.828,725.093,317.922z"/>
<path fill="#FFFFFF" d="M588.357,292.743c5.08,0,10.014,0,15.111,0c0,4.437,0,8.769,0,13.364c-4.964,0-9.989,0-15.144,0
	c0,4.037,0,7.811,0,11.854c5.861,0,11.715,0,17.697,0c0,4.677,0,9.086,0,13.685c-11.659,0-23.336,0-35.14,0
	c0-21.42,0-42.817,0-64.342c11.666,0,23.29,0,35.017,0c0,4.509,0,8.927,0,13.553c-5.786,0-11.583,0-17.543,0
	C588.357,284.88,588.357,288.7,588.357,292.743z"/>
<path fill="#FFFFFF" d="M702.521,316.57c0,5.106,0,10.1,0,15.068c-9.26,3.422-26.204,2.383-36.257-9.957
	c-9.069-11.134-10.183-30.043-2.218-41.93c8.864-13.233,23.956-16.662,38.44-13.134c0,5.02,0,10.066,0,15.192
	c-1.925-0.332-3.781-0.652-5.638-0.974c-12.203-2.113-18.66,6.979-19.37,15.806c-0.293,3.627-0.055,7.223,1.205,10.686
	c2.691,7.404,9.641,11.498,17.65,10.359C698.337,317.406,700.315,316.975,702.521,316.57z"/>
<path fill="#FFFFFF" d="M348.177,316.588c0,5.083,0,10.075,0,15.049c-9.107,3.405-26.268,2.477-36.366-10.129
	c-9.176-11.455-9.979-30.553-1.63-42.424c9.176-13.047,24.544-15.895,37.988-12.402c0,4.967,0,9.957,0,15.118
	c-1.827-0.314-3.604-0.606-5.374-0.927c-12.207-2.213-18.909,6.596-19.58,15.712c-0.217,2.924,0.011,5.994,0.67,8.851
	c1.989,8.605,9.344,13.479,18.083,12.262C344.018,317.41,346.047,316.973,348.177,316.588z"/>
<path fill="#FFFFFF" d="M261.803,293.943c-0.176,8.081-1.553,14.211-5.66,19.36c-1.458,1.828-3.439,3.393-5.476,4.57
	c-2.958,1.711-5.93,0.814-7.737-2.082c-2.807-4.497-3.734-9.43-3.256-14.711c0.566-6.248,2.855-11.762,6.736-16.627
	c0.895-1.122,1.982-2.155,3.159-2.973c3.377-2.347,7-1.584,9.137,1.917C260.974,287.114,261.919,291.202,261.803,293.943z"/>
<path fill="#FFFFFF" d="M202.34,295.441c-0.237,6.706-1.665,13.056-6.066,18.356c-1.229,1.48-2.805,2.777-4.448,3.79
	c-3.354,2.065-6.567,1.208-8.631-2.159c-2.79-4.555-3.48-9.601-2.982-14.801c0.563-5.867,2.758-11.155,6.415-15.778
	c1.007-1.273,2.198-2.491,3.533-3.397c3.464-2.354,6.949-1.563,9.106,2.018C201.471,287.13,202.462,291.144,202.34,295.441z"/>
</svg>
