<?xml version="1.0" encoding="UTF-8" standalone="no"?>
<svg width="59px" height="90px" viewBox="0 0 59 90" version="1.1" xmlns="http://www.w3.org/2000/svg" xmlns:xlink="http://www.w3.org/1999/xlink">
    <!-- Generator: sketchtool 39.1 (31720) - http://www.bohemiancoding.com/sketch -->
    <title>C71640CF-8EF1-4F82-965E-A5623A002810</title>
    <desc>Created with sketchtool.</desc>
    <defs></defs>
    <g id="Page-1" stroke="none" stroke-width="1" fill="none" fill-rule="evenodd" fill-opacity="0.25">
        <g id="Kots_FAQ_1280" transform="translate(-140.000000, -280.000000)" fill="#00C564">
            <path d="M157.457372,337.224674 L157.457372,332.135406 C157.457372,328.269121 158.246398,325.004527 159.824473,322.341525 C161.402549,319.678522 164.203591,317.0846 168.227683,314.559679 C171.423286,312.547633 173.721324,310.732873 175.121866,309.115346 C176.522408,307.497819 177.222668,305.643608 177.222668,303.552658 C177.222668,301.895679 176.473093,300.583923 174.973922,299.617352 C173.47475,298.650781 171.521911,298.167503 169.115346,298.167503 C163.158111,298.167503 156.194958,300.278147 148.225677,304.499498 L140,288.40321 C149.82352,282.801042 160.080856,280 170.772317,280 C179.570087,280 186.474064,281.933113 191.484453,285.799398 C196.494843,289.665683 199,294.932431 199,301.599799 C199,306.373478 197.885501,310.506001 195.656469,313.997492 C193.427438,317.488984 189.866959,320.79303 184.974925,323.909729 C180.832477,326.592457 178.238554,328.555159 177.193079,329.797894 C176.147604,331.040628 175.624875,332.510189 175.624875,334.20662 L175.624875,337.224674 L157.457372,337.224674 Z M154.912738,357.93681 C154.912738,354.307237 155.96806,351.506195 158.078736,349.533601 C160.189412,347.561007 163.296201,346.574724 167.399198,346.574724 C171.344386,346.574724 174.372273,347.570869 176.482949,349.56319 C178.593625,351.55551 179.648947,354.346689 179.648947,357.93681 C179.648947,361.526932 178.554173,364.308248 176.364594,366.280843 C174.175014,368.253437 171.186579,369.239719 167.399198,369.239719 C163.493461,369.239719 160.435986,368.2633 158.22668,366.310431 C156.017374,364.357563 154.912738,361.566384 154.912738,357.93681 L154.912738,357.93681 Z" id="?"></path>
        </g>
    </g>
</svg>