<?xml version="1.0" encoding="UTF-8" standalone="no"?>
<svg width="328px" height="328px" viewBox="0 0 328 328" version="1.1" xmlns="http://www.w3.org/2000/svg" xmlns:xlink="http://www.w3.org/1999/xlink">
    <!-- Generator: sketchtool 39.1 (31720) - http://www.bohemiancoding.com/sketch -->
    <title>4E6968F7-6270-4556-8B74-7CA593E6FFFC</title>
    <desc>Created with sketchtool.</desc>
    <defs></defs>
    <g id="Page-1" stroke="none" stroke-width="1" fill="none" fill-rule="evenodd" opacity="0.24895056">
        <g id="Kots_main_1280" transform="translate(-286.000000, -2012.000000)" fill="#00C564">
            <g id="Block_04" transform="translate(140.000000, 1996.000000)">
                <g id="Forest" transform="translate(146.000000, 16.000000)">
                    <path d="M224.91211,312.400981 L224.91211,249.899987 L239.426732,249.899987 C241.544551,249.899987 243.572308,249.03745 245.041132,247.510137 L320.355057,169.327491 C323.031808,166.553259 323.275065,162.236859 320.931631,159.176662 L279.183408,104.629766 L291.3156,90.8078149 C293.897649,87.8664606 293.897649,83.4637137 291.3156,80.5186456 L222.975342,2.6553893 C221.492591,0.968381483 219.356203,0 217.111186,0 C214.869882,0 212.733495,0.968381483 211.249815,2.6553893 L142.910486,80.5186456 C140.328437,83.4637137 140.328437,87.8664606 142.910486,90.8078149 L155.04175,104.629766 L113.293527,159.176662 C110.951021,162.236859 111.197991,166.553259 113.871029,169.327491 L189.184953,247.510137 C190.653778,249.03745 192.680607,249.899987 194.802139,249.899987 L209.313047,249.899987 L209.313047,312.400981 L99.1605019,312.400981 L99.1605019,249.899987 L149.913863,249.899987 C154.221919,249.899987 157.714787,246.408057 157.714787,242.102798 C157.714787,237.793826 154.221919,234.301896 149.913863,234.301896 L24.0824065,234.301896 L91.3623628,32.4635269 L114.128212,100.75624 C115.488407,104.843311 119.906022,107.052113 123.993104,105.688208 C128.076473,104.328017 130.288995,99.9113436 128.925086,95.8233439 L98.761264,5.33120467 C97.6991052,2.14752289 94.7215326,0 91.3623628,0 C88.0041215,0 85.0265489,2.14752289 83.9643901,5.33120467 L5.86044221,239.633101 C5.07032239,242.01181 5.46956037,244.627275 6.93467092,246.661526 C8.39978147,248.696706 10.7534287,249.899987 13.2593433,249.899987 L83.5651522,249.899987 L83.5651522,312.400981 L7.79721066,312.400981 C3.49286812,312.400981 0,315.893839 0,320.198169 C0,324.507142 3.49286812,328 7.79721066,328 L320.202789,328 C324.50806,328 328,324.507142 328,320.198169 C328,315.893839 324.50806,312.400981 320.202789,312.400981 L224.91211,312.400981 Z M217.39162,156.75814 C213.068504,156.75814 209.561158,160.235574 209.561158,164.530085 L209.561158,187.775591 L191.64032,172.814668 C188.333421,170.049747 183.391252,170.47633 180.609243,173.758516 C177.822572,177.043479 178.248637,181.948715 181.559265,184.71086 L209.561158,208.089616 L209.561158,234.596026 L198.31938,234.596026 L129.674419,163.864764 L171.406423,109.747085 C173.67473,106.804498 173.536748,102.680251 171.074521,99.8968232 L159.191314,86.4580869 L217.39162,20.6357616 L275.595655,86.4580869 L263.711515,99.8968232 C261.25022,102.680251 261.111306,106.804498 263.380546,109.747085 L305.116279,163.864764 L236.467589,234.596026 L225.224878,234.596026 L225.224878,208.089616 L253.226771,184.71086 C256.537399,181.948715 256.963464,177.043479 254.177726,173.758516 C251.394784,170.472628 246.453548,170.049747 243.14292,172.814668 L225.224878,187.775591 L225.224878,164.530085 C225.224878,160.235574 221.717532,156.75814 217.39162,156.75814 L217.39162,156.75814 Z" id="trees"></path>
                </g>
            </g>
        </g>
    </g>
</svg>