<?xml version="1.0" encoding="UTF-8" standalone="no"?>
<svg width="32px" height="48px" viewBox="0 0 32 48" version="1.1" xmlns="http://www.w3.org/2000/svg" xmlns:xlink="http://www.w3.org/1999/xlink">
    <!-- Generator: sketchtool 39.1 (31720) - http://www.bohemiancoding.com/sketch -->
    <title>98D9B7FB-D96E-4BB1-9BFA-57611666EAAB</title>
    <desc>Created with sketchtool.</desc>
    <defs>
        <linearGradient x1="50%" y1="0%" x2="50%" y2="100%" id="linearGradient-1">
            <stop stop-color="#32DDC3" offset="0%"></stop>
            <stop stop-color="#17B890" offset="100%"></stop>
        </linearGradient>
    </defs>
    <g id="Page-1" stroke="none" stroke-width="1" fill="none" fill-rule="evenodd">
        <g id="Kots_main_1280" transform="translate(-844.000000, -2828.000000)" fill="url(#linearGradient-1)">
            <path d="M844,2844.46689 C844,2852.77796 858.544097,2874.4432 859.166194,2875.35943 C859.35017,2875.63178 859.664146,2875.8 860.000172,2875.8 C860.336198,2875.8 860.647993,2875.63178 860.834151,2875.35943 C861.454065,2874.4432 876,2852.77796 876,2844.46689 C876,2835.8268 868.821949,2828.8 860.000172,2828.8 C851.178051,2828.8 844,2835.8268 844,2844.46689 Z M860.000172,2855.17832 C853.967574,2855.17832 849.060804,2850.37309 849.060804,2844.46689 C849.060804,2838.55982 853.967574,2833.75547 860.000172,2833.75547 C866.032232,2833.75547 870.93954,2838.55982 870.93954,2844.46689 C870.93954,2850.37309 866.032232,2855.17832 860.000172,2855.17832 Z M865.41981,2839.31174 C865.364038,2839.24618 865.305524,2839.18302 865.243657,2839.12225 C865.18179,2839.06148 865.118705,2839.004 865.051962,2838.95011 C864.394895,2838.41126 863.536381,2838.24392 862.698286,2838.49179 C861.819962,2838.75044 861.140038,2839.41562 860.878248,2840.2727 C860.775848,2840.60739 860.662781,2840.90885 860.5424,2841.18157 C858.93661,2839.86347 856.90781,2838.68607 856.130667,2839.44855 C855.719848,2839.85299 855.828038,2840.65289 856.448533,2841.76143 C856.512838,2841.87728 856.582933,2841.99523 856.656686,2842.11588 C856.135238,2842.31914 855.667429,2842.61402 855.2688,2843.00558 C853.653257,2844.59251 853.653257,2847.17571 855.2688,2848.76264 C856.077029,2849.55655 857.1376,2849.9529 858.199695,2849.9529 C859.261486,2849.9529 860.322362,2849.55655 861.13059,2848.76264 C861.529524,2848.37077 861.82941,2847.91125 862.036648,2847.39904 C862.157943,2847.47148 862.278324,2847.54064 862.395962,2847.605 C863.077105,2847.97082 863.643657,2848.15672 864.077029,2848.15672 C864.361371,2848.15672 864.58781,2848.0762 864.750857,2847.91604 C865.499657,2847.1805 864.437562,2845.32685 863.129524,2843.7495 C863.41021,2843.62766 863.724724,2843.5145 864.073371,2843.41032 C864.945905,2843.15407 865.62339,2842.48529 865.8864,2841.62343 C866.137829,2840.79898 865.968686,2839.95717 865.41981,2839.31174 Z M864.405562,2847.57686 C864.226971,2847.75348 863.66621,2847.743 862.630629,2847.18499 C862.416381,2847.06944 862.1936,2846.93472 861.967467,2846.78864 C861.903162,2846.74643 861.838857,2846.70451 861.774552,2846.66111 C861.720914,2846.62488 861.666362,2846.58746 861.612724,2846.55004 C861.545981,2846.50334 861.479238,2846.45664 861.411581,2846.40755 C861.343619,2846.35935 861.276876,2846.30816 861.209219,2846.25667 C861.198552,2846.24948 861.1888,2846.2414 861.178133,2846.23451 C861.059276,2846.14321 860.938895,2846.04951 860.819733,2845.95371 C860.790171,2845.93036 860.760305,2845.90821 860.730438,2845.88366 C860.616152,2845.79116 860.503086,2845.69536 860.3888,2845.59837 C860.361676,2845.57472 860.334248,2845.55137 860.306819,2845.52802 C860.2864,2845.51065 860.265067,2845.49179 860.243733,2845.47323 C860.145905,2845.38762 860.048381,2845.2999 859.949638,2845.21009 C859.935314,2845.19602 859.919771,2845.18315 859.904533,2845.16908 C859.873448,2845.14094 859.841143,2845.1119 859.809143,2845.08257 C859.674743,2844.95623 859.540038,2844.8299 859.405638,2844.69788 C859.272152,2844.56676 859.142629,2844.43474 859.015238,2844.30123 C858.985371,2844.27099 858.955505,2844.23926 858.925943,2844.20783 C858.911619,2844.19376 858.898514,2844.17849 858.88419,2844.16352 C858.793676,2844.06743 858.704381,2843.97163 858.617524,2843.87464 C858.598324,2843.85458 858.579429,2843.83362 858.560229,2843.81267 C858.536457,2843.78572 858.513905,2843.75878 858.490133,2843.73304 C858.39139,2843.62078 858.293562,2843.50851 858.199695,2843.39745 C858.174705,2843.36811 858.152152,2843.33907 858.126857,2843.30974 C858.029333,2843.19149 857.934248,2843.07474 857.842514,2842.95649 C857.834286,2842.94721 857.826971,2842.93673 857.818743,2842.92745 C857.767543,2842.86069 857.715124,2842.79393 857.665143,2842.72867 C857.616381,2842.66192 857.568533,2842.59635 857.52099,2842.5299 C857.482895,2842.47721 857.4448,2842.42452 857.407924,2842.37183 C857.362819,2842.30867 857.319848,2842.2443 857.278095,2842.18114 C857.129371,2841.95901 856.992533,2841.74048 856.87459,2841.53122 C856.306819,2840.51369 856.296152,2839.96286 856.474743,2839.78623 C856.547276,2839.71618 856.661562,2839.67996 856.812724,2839.67996 C857.453333,2839.67996 858.754362,2840.31611 860.322362,2841.62343 C860.297371,2841.66683 860.273295,2841.71473 860.248305,2841.75574 C860.246171,2841.75904 860.244952,2841.76263 860.242514,2841.76742 C860.185219,2841.86082 860.12701,2841.94853 860.067581,2842.02816 L860.061486,2842.03625 C860.002057,2842.11588 859.942324,2842.18832 859.881676,2842.25388 C859.879238,2842.25718 859.877105,2842.25957 859.873448,2842.26197 C859.814019,2842.32633 859.752152,2842.38231 859.689981,2842.4326 C859.686629,2842.435 859.682971,2842.43859 859.678095,2842.44099 C859.616229,2842.49008 859.554362,2842.53199 859.491276,2842.56612 L859.184076,2842.72748 L859.443733,2842.95529 C859.723505,2843.19987 859.995962,2843.45343 860.255619,2843.70729 C860.623467,2844.06862 860.981867,2844.45091 861.319848,2844.84278 L861.557867,2845.11879 L861.723352,2844.79607 C861.756876,2844.73291 861.798324,2844.67094 861.847086,2844.60778 C861.849524,2844.60418 861.851962,2844.60059 861.855619,2844.5973 C861.904381,2844.53533 861.961676,2844.47456 862.025676,2844.41349 C862.029333,2844.41139 862.031771,2844.4078 862.035429,2844.40541 C862.100952,2844.34464 862.174705,2844.28506 862.254248,2844.22549 C862.257905,2844.22429 862.261562,2844.2219 862.264,2844.2195 C862.345981,2844.15993 862.434057,2844.10245 862.530667,2844.04527 C862.534019,2844.04288 862.538895,2844.04048 862.542552,2844.03839 C862.585219,2844.01384 862.634286,2843.98929 862.67939,2843.96444 C864.212648,2845.78757 864.765181,2847.22481 864.405562,2847.57686 Z M859.442514,2845.40049 C859.458057,2845.41456 859.472381,2845.42983 859.487619,2845.4439 C859.506819,2845.46126 859.524495,2845.47653 859.542476,2845.49299 C859.548571,2845.49868 859.553143,2845.50227 859.558019,2845.50706 C859.650667,2845.59238 859.743619,2845.6753 859.836571,2845.75853 C859.865219,2845.78307 859.893562,2845.81002 859.92099,2845.83457 C859.923429,2845.83546 859.925867,2845.83786 859.928305,2845.84025 C859.937752,2845.84834 859.948419,2845.85672 859.957867,2845.8648 C860.0688,2845.9606 860.179429,2846.0543 860.290057,2846.1468 C860.309257,2846.16177 860.328152,2846.17943 860.347352,2846.1947 C860.468648,2846.29409 860.590248,2846.39108 860.711543,2846.48448 C860.738971,2846.50693 860.7664,2846.52789 860.793524,2846.54885 C860.674667,2847.00148 860.43421,2847.41311 860.095924,2847.7463 C859.049676,2848.77311 857.348495,2848.77431 856.303162,2847.7463 C855.256914,2846.71978 855.256914,2845.04754 856.303162,2844.02072 C856.641143,2843.68753 857.06019,2843.45253 857.52221,2843.33548 C857.543543,2843.36123 857.565181,2843.38817 857.587733,2843.41511 C857.682819,2843.53426 857.781867,2843.6546 857.883048,2843.77405 C857.898286,2843.79261 857.916267,2843.81147 857.93181,2843.83003 C858.024762,2843.939 858.121067,2844.04767 858.21859,2844.15634 C858.227124,2844.16562 858.235352,2844.1752 858.243581,2844.18567 C858.246019,2844.18807 858.248457,2844.19016 858.249676,2844.19256 C858.274667,2844.2195 858.302095,2844.24764 858.327086,2844.27578 C858.410286,2844.36679 858.495924,2844.45809 858.581867,2844.5494 C858.587657,2844.55389 858.591314,2844.55868 858.59619,2844.56437 C858.613867,2844.58203 858.62941,2844.59969 858.647086,2844.61706 C858.66141,2844.63232 858.676952,2844.64759 858.691276,2844.66286 C858.811657,2844.78769 858.93539,2844.91283 859.061562,2845.03706 C859.186514,2845.161 859.315124,2845.28134 859.442514,2845.40049 Z M865.41981,2841.48542 C865.203124,2842.19311 864.647238,2842.74155 863.932876,2842.952 C863.575695,2843.05827 863.181638,2843.19628 862.804343,2843.36811 L862.800686,2843.36362 L862.62941,2843.44774 C862.618743,2843.45253 862.61021,2843.45822 862.600762,2843.46301 C862.54499,2843.49085 862.492571,2843.52139 862.437714,2843.55072 C862.164952,2843.69921 861.93181,2843.85697 861.743771,2844.02312 C861.730667,2844.03479 861.715124,2844.04527 861.702019,2844.05695 C861.619733,2844.13418 861.544762,2844.21142 861.479238,2844.29195 C861.366171,2844.16442 861.250667,2844.04048 861.134248,2843.91655 C860.958095,2843.73064 860.781638,2843.54713 860.600914,2843.36931 C860.406781,2843.17862 860.205638,2842.98942 860.000838,2842.80441 C860.080686,2842.74035 860.15901,2842.66551 860.2352,2842.58468 C860.249524,2842.56941 860.262629,2842.55205 860.275733,2842.53678 C860.436648,2842.35776 860.589029,2842.13923 860.732876,2841.88417 C860.767619,2841.8234 860.802057,2841.76383 860.834057,2841.70066 C860.838933,2841.69138 860.84381,2841.6842 860.848381,2841.67492 L860.9328,2841.50877 L860.928229,2841.50428 C861.100724,2841.13816 861.238781,2840.75587 861.344838,2840.40951 C861.560305,2839.7081 862.11741,2839.16296 862.837562,2838.95011 C863.517486,2838.75044 864.21021,2838.88365 864.74019,2839.31743 C864.794743,2839.36293 864.847162,2839.40993 864.899581,2839.46143 C864.950781,2839.51142 864.999543,2839.56411 865.044952,2839.61799 C865.486552,2840.13709 865.62339,2840.81904 865.41981,2841.48542 Z" id="geo_child"></path>
        </g>
    </g>
</svg>