<?xml version="1.0" encoding="UTF-8" standalone="no"?>
<svg width="32px" height="48px" viewBox="0 0 32 48" version="1.1" xmlns="http://www.w3.org/2000/svg" xmlns:xlink="http://www.w3.org/1999/xlink">
    <g id="Page-1" stroke="none" stroke-width="1" fill="none" fill-rule="evenodd">
        <g id="Kots_main_1280" transform="translate(-844.000000, -2763.000000)" fill="#00c564">
            <g id="geo_metro" transform="translate(844.000000, 2763.800000)">
				<circle id="Oval-4" fill="#FFFFFF" cx="15.5" cy="15.5" r="11.5"></circle>
                <path d="M16.0001723,26.3783178 C9.96757364,26.3783178 5.06080405,21.5730869 5.06080405,15.6668916 C5.06080405,9.75981755 9.96757364,4.9554653 16.0001723,4.9554653 C22.0322325,4.9554653 26.9395405,9.75981755 26.9395405,15.6668916 C26.9395405,21.5730869 22.0322325,26.3783178 16.0001723,26.3783178 M0,15.6668916 C0,23.9779625 14.5440973,45.643196 15.1661935,46.5594267 C15.3501696,46.831777 15.6641461,47 16.0001723,47 C16.3361984,47 16.647993,46.831777 16.834151,46.5594267 C17.4540652,45.643196 32,23.9779625 32,15.6668916 C32,7.02679625 24.8219491,0 16.0001723,0 C7.17805093,0 0,7.02679625 0,15.6668916 Z M8.83809524,20.1688658 C9.67152182,16.737581 10.5028099,13.3150911 11.3374046,9.87898089 C12.849169,11.9980112 14.3538619,14.1071262 15.8625803,16.2218958 C17.3666263,14.1150744 18.8672398,12.0130518 20.3753202,9.90057584 C21.2094027,13.3345071 22.0405919,16.7565471 22.8733536,20.1850532 C22.8517167,20.1861647 22.8347342,20.1875761 22.8177427,20.1878231 C22.1604397,20.1971386 21.5031368,20.2062247 20.8458338,20.2156372 C20.4355766,20.2215123 20.0253193,20.2271933 19.615098,20.2350444 C19.5743131,20.2358207 19.5624793,20.2224827 19.5544193,20.1858471 C19.371341,19.3531274 19.1868968,18.5207076 19.0028031,17.6882084 C18.9361491,17.3867878 18.8697737,17.0853054 18.8031107,16.7838848 C18.8006756,16.772858 18.7965693,16.762184 18.7905221,16.7425122 C17.8081888,18.1489005 16.8301595,19.5491403 15.8479161,20.955414 C14.8714143,19.5408923 13.8993693,18.132819 12.9210076,16.7155979 C12.8983553,16.816339 12.8778865,16.9061415 12.8579837,16.9960587 C12.6238591,18.0538934 12.3895188,19.1116839 12.1568588,20.1698274 C12.1478194,20.2109266 12.1263981,20.2114647 12.0940775,20.2110059 C11.0849137,20.1966446 10.0757409,20.1827332 9.06656804,20.1689981 C8.99338162,20.1680013 8.92015927,20.1688658 8.83809524,20.1688658 Z" id="Combined-Shape"></path>
            </g>
        </g>
    </g>
</svg>