<?xml version="1.0" encoding="UTF-8" standalone="no"?>
<svg width="32px" height="47px" viewBox="0 0 32 47" version="1.1" xmlns="http://www.w3.org/2000/svg" xmlns:xlink="http://www.w3.org/1999/xlink">
    <g id="Page-1" stroke="none" stroke-width="1" fill="none" fill-rule="evenodd">
        <g id="Kots_main_1280" transform="translate(-507.000000, -2935.000000)"  fill="#00c564">
            <g id="geo_metro" transform="translate(507.000000, 2935.000000)">
                <g id="Group-5">
                    <circle id="Oval-4" fill="#FFFFFF" cx="15.5" cy="15.5" r="11.5"></circle>
                    <path d="M0,15.6668916 C0,23.9779625 14.5440973,45.643196 15.1661935,46.5594267 C15.3501696,46.831777 15.6641461,47 16.0001723,47 C16.3361984,47 16.647993,46.831777 16.834151,46.5594267 C17.4540652,45.643196 32,23.9779625 32,15.6668916 C32,7.02679625 24.8219491,0 16.0001723,0 C7.17805093,0 0,7.02679625 0,15.6668916 Z M16.0001723,26.3783178 C9.96757364,26.3783178 5.06080405,21.5730869 5.06080405,15.6668916 C5.06080405,9.75981755 9.96757364,4.9554653 16.0001723,4.9554653 C22.0322325,4.9554653 26.9395405,9.75981755 26.9395405,15.6668916 C26.9395405,21.5730869 22.0322325,26.3783178 16.0001723,26.3783178 Z M21.3306198,19.673793 L20.5894177,11.4745182 C20.5735002,11.292419 20.4173375,11.1545281 20.2347009,11.1545281 L18.70974,11.1545281 C18.6885278,9.78673622 17.5502177,8.68152866 16.1523313,8.68152866 C14.7545442,8.68152866 13.6162341,9.78673622 13.5950219,11.1545281 L12.070061,11.1545281 C11.8848432,11.1545281 11.7312617,11.292419 11.7153442,11.4745182 L10.9740098,19.673793 C10.9740098,19.6841949 10.9714286,19.6946294 10.9714286,19.7050313 C10.9714286,20.6385741 11.8424188,21.3978842 12.9145773,21.3978842 L19.3900522,21.3978842 C20.4623431,21.3978842 21.3333333,20.6385741 21.3333333,19.7050313 C21.3333333,19.6946294 21.3333333,19.6841949 21.3306198,19.673793 Z M19.3900522,20.6958499 L12.9145773,20.6958499 C12.242108,20.6958499 11.6968787,20.2589028 11.6862892,19.7206668 L12.3956895,11.8593905 L13.5923083,11.8593905 L13.5923083,12.9254932 C13.5923083,13.1205298 13.7511846,13.2765591 13.9497386,13.2765591 C14.1482926,13.2765591 14.3071689,13.1205298 14.3071689,12.9254932 L14.3071689,11.8593905 L17.9948794,11.8593905 L17.9948794,12.9254932 C17.9948794,13.1205298 18.1537557,13.2765591 18.3523097,13.2765591 C18.5508637,13.2765591 18.70974,13.1205298 18.70974,12.9254932 L18.70974,11.8593905 L19.9063588,11.8593905 L20.6185058,19.7206668 C20.6078832,20.2589028 20.0599403,20.6958499 19.3900522,20.6958499 Z M16.1523313,9.38372553 C17.1556909,9.38372553 17.9738327,10.174274 17.9948794,11.1545281 L14.3097501,11.1545281 C14.3309623,10.174274 15.1489387,9.38372553 16.1523313,9.38372553 Z" id="geo_shop"></path>
                </g>
            </g>
        </g>
    </g>
</svg>