<?xml version="1.0" encoding="UTF-8" standalone="no"?>
<svg width="34px" height="49px" viewBox="0 0 34 49" version="1.1" xmlns="http://www.w3.org/2000/svg" xmlns:xlink="http://www.w3.org/1999/xlink">
    <!-- Generator: sketchtool 39.1 (31720) - http://www.bohemiancoding.com/sketch -->
    <title>3C99FB2F-0D3C-4EC8-9186-D385D4DE4D4A</title>
    <desc>Created with sketchtool.</desc>
    <defs>
        <linearGradient x1="50%" y1="0%" x2="50%" y2="100%" id="linearGradient-1">
            <stop stop-color="#32DDC3" offset="0%"></stop>
            <stop stop-color="#17B890" offset="100%"></stop>
        </linearGradient>
        <linearGradient x1="50%" y1="0%" x2="82.9765625%" y2="100%" id="linearGradient-2">
            <stop stop-color="#32DDC3" offset="0%"></stop>
            <stop stop-color="#17B890" offset="100%"></stop>
        </linearGradient>
    </defs>
    <g id="Page-1" stroke="none" stroke-width="1" fill="none" fill-rule="evenodd">
        <g id="Kots_main_1280" transform="translate(-843.000000, -2894.000000)" stroke="url(#linearGradient-2)" stroke-width="0.5" fill="url(#linearGradient-1)">
            <path d="M844,2910.46689 C844,2918.77796 858.544097,2940.4432 859.166194,2941.35943 C859.35017,2941.63178 859.664146,2941.8 860.000172,2941.8 C860.336198,2941.8 860.647993,2941.63178 860.834151,2941.35943 C861.454065,2940.4432 876,2918.77796 876,2910.46689 C876,2901.8268 868.821949,2894.8 860.000172,2894.8 C851.178051,2894.8 844,2901.8268 844,2910.46689 Z M860.000172,2921.17832 C853.967574,2921.17832 849.060804,2916.37309 849.060804,2910.46689 C849.060804,2904.55982 853.967574,2899.75547 860.000172,2899.75547 C866.032232,2899.75547 870.93954,2904.55982 870.93954,2910.46689 C870.93954,2916.37309 866.032232,2921.17832 860.000172,2921.17832 Z M866.2976,2908.57998 C866.202514,2908.48508 866.047695,2908.48508 865.952305,2908.57998 L859.298743,2915.11568 C858.808381,2915.59735 858.153448,2915.86289 857.454629,2915.86289 C856.75581,2915.86289 856.099962,2915.59735 855.610819,2915.11568 C855.120152,2914.6337 854.850133,2913.99067 854.850133,2913.30423 C854.850133,2912.61779 855.120152,2911.97476 855.610819,2911.49278 L862.264381,2904.95589 C862.97021,2904.26257 864.079848,2904.30448 864.84419,2905.05528 C865.60701,2905.80608 865.6512,2906.89487 864.945371,2907.58819 L858.692876,2913.72992 C858.343924,2914.07239 857.774933,2914.07239 857.425067,2913.72992 C857.074895,2913.38596 857.074895,2912.82704 857.425067,2912.48338 L861.659429,2908.32373 C861.754819,2908.23032 861.754819,2908.07825 861.659429,2907.98455 C861.564343,2907.89115 861.410743,2907.89115 861.314133,2907.98455 L857.079771,2912.1442 C856.540343,2912.67497 856.540343,2913.53683 857.079771,2914.0679 C857.620114,2914.59868 858.498743,2914.59748 859.038171,2914.0679 L865.289143,2907.92737 C866.192762,2907.03976 866.148876,2905.65999 865.189181,2904.7161 C864.228571,2903.77371 862.822705,2903.7306 861.920305,2904.61671 L855.265524,2911.1548 C854.68221,2911.72659 854.361905,2912.49026 854.361905,2913.30423 C854.361905,2914.11939 854.68221,2914.88277 855.265524,2915.45485 C855.847619,2916.02783 856.625067,2916.34217 857.454629,2916.34217 C858.283276,2916.34217 859.060724,2916.02783 859.642819,2915.45485 L866.2976,2908.91796 C866.39299,2908.82426 866.39299,2908.67218 866.2976,2908.57998 Z" id="geo_edu"></path>
        </g>
    </g>
</svg>