<?xml version="1.0" encoding="UTF-8" standalone="no"?>
<svg width="329px" height="172px" viewBox="0 0 329 172" version="1.1" xmlns="http://www.w3.org/2000/svg" xmlns:xlink="http://www.w3.org/1999/xlink">
    <!-- Generator: sketchtool 39.1 (31720) - http://www.bohemiancoding.com/sketch -->
    <title>23030B39-9E1D-4F64-8CB3-C22DF3A789D9</title>
    <desc>Created with sketchtool.</desc>
    <defs></defs>
    <g id="Page-1" stroke="none" stroke-width="1" fill="none" fill-rule="evenodd" opacity="0.25">
        <g id="Kots_main_1280" transform="translate(-279.000000, -1397.000000)">
            <g id="Block_02" transform="translate(140.000000, 1231.000000)">
                <g id="Group" transform="translate(139.000000, 166.000000)">
                    <rect id="Rectangle-3" fill="#00C564" x="149" y="157" width="180" height="15" rx="7.5"></rect>
                    <path d="M52.5005652,75.2296127 C39.834395,75.2296127 29.532039,64.9584969 29.532039,52.3340846 C29.532039,39.7077941 39.834395,29.4385564 52.5005652,29.4385564 C65.165605,29.4385564 75.4690915,39.7077941 75.4690915,52.3340846 C75.4690915,64.9584969 65.165605,75.2296127 52.5005652,75.2296127 M52.5005652,0 C23.5529796,0 0,23.4724896 0,52.3340846 C0,80.0965981 47.7228194,152.467697 49.7640726,155.528298 C50.3677439,156.438064 51.3979795,157 52.5005652,157 C53.603151,157 54.6262269,156.438064 55.2370579,155.528298 C57.2711515,152.467697 105,80.0965981 105,52.3340846 C105,23.4724896 81.4470204,0 52.5005652,0" id="Fill-1" fill="#00C564"></path>
                    <rect id="Rectangle-3" fill="#00C564" x="3" y="157" width="58" height="15" rx="7.5"></rect>
                    <text id="KYIV" font-family="UniSansHeavyCAPS, Uni Sans" font-size="72" font-weight="600" fill="#17B890">
                        <tspan x="140" y="152">KYIV</tspan>
                    </text>
                    <circle id="Oval" fill="#00C564" cx="74.5" cy="164.5" r="7.5"></circle>
                    <circle id="Oval-Copy-4" fill="#00C564" cx="54.5" cy="164.5" r="7.5"></circle>
                    <circle id="Oval-Copy" fill="#00C564" cx="95.5" cy="164.5" r="7.5"></circle>
                    <circle id="Oval-Copy-2" fill="#00C564" cx="115.5" cy="164.5" r="7.5"></circle>
                    <circle id="Oval-Copy-3" fill="#00C564" cx="136.5" cy="164.5" r="7.5"></circle>
                </g>
            </g>
        </g>
    </g>
</svg>
