<?xml version="1.0" encoding="UTF-8" standalone="no"?>
<svg width="384px" height="245px" viewBox="0 0 384 245" version="1.1" xmlns="http://www.w3.org/2000/svg" xmlns:xlink="http://www.w3.org/1999/xlink">
    <!-- Generator: sketchtool 39.1 (31720) - http://www.bohemiancoding.com/sketch -->
    <title>B1E38683-F8C2-4AEC-8020-9B2094897B2C</title>
    <desc>Created with sketchtool.</desc>
    <defs></defs>
    <g id="Page-1" stroke="none" stroke-width="1" fill="none" fill-rule="evenodd" opacity="0.25">
        <g id="Kots_main_1280" transform="translate(-667.000000, -1702.000000)" fill="#00C564">
            <g id="Block_03" transform="translate(665.000000, 1607.000000)">
                <g id="Infrastructure" transform="translate(2.000000, 95.000000)">
                    <rect id="Rectangle-3" x="31.9317697" y="228.434968" width="352.06823" height="16.3752665" rx="8.18763326"></rect>
                    <path d="M79.0260598,189.890427 C86.1045187,189.890427 91.9181306,195.664552 91.9181306,202.801085 C91.9181306,209.937618 86.1045187,215.711743 79.0260598,215.711743 C71.9464297,215.711743 66.133989,209.891931 66.133989,202.801085 C66.133989,195.712582 71.9464297,189.890427 79.0260598,189.890427 L79.0260598,189.890427 Z M180.007702,189.890427 C187.084989,189.890427 192.899772,195.664552 192.899772,202.801085 C192.899772,209.937618 187.084989,215.711743 180.007702,215.711743 C172.9269,215.711743 167.115631,209.891931 167.115631,202.801085 C167.115631,195.712582 172.9269,189.890427 180.007702,189.890427 L180.007702,189.890427 Z M177.641342,143.315259 C176.246593,137.042973 169.720965,137.397317 169.06629,137.397317 L60.4140695,137.73118 C53.1002085,137.73118 47.1940754,131.769621 47.1940754,124.493685 L47.1940754,58.2827781 C47.1940754,57.0726601 48.2621685,56.1413496 49.4602597,56.3065254 C49.4602597,56.3065254 153.831517,70.4437501 156.05832,70.6942366 C158.285123,70.944723 162.070789,70.6942353 162.974459,65.8398925 C163.87813,60.9855497 160.288324,58.6499723 157.900547,58.2041324 L48.9613478,43.4638119 C47.9740644,43.3267511 47.2397504,42.4833 47.2397504,41.4875592 L47.2397504,20.9706127 C47.1940754,20.2677368 47.1940754,20.2185355 47.1460581,20.1271616 C47.054708,19.5636895 47.054708,19.4699727 47.0066907,19.3270546 C47.0066907,19.2333378 46.8193059,18.6710371 46.8193059,18.6710371 C46.5370576,18.0595351 46.5370576,17.9658183 46.4913826,17.9201314 C46.1154419,17.3098009 46.0674246,17.261771 46.0217496,17.1680542 C45.9737322,17.0743374 45.4127491,16.4640069 45.4127491,16.4640069 C44.8962699,15.9942515 44.8025775,15.9485646 44.7557313,15.9005347 C44.3352868,15.572526 44.1935771,15.4788092 44.0998847,15.4331223 C43.7719614,15.2445173 43.5389016,15.1508005 43.3515169,15.0570837 L8.79894014,0.501695956 C5.56421089,-0.859540307 1.86101977,0.642271129 0.50130918,3.88135742 C-0.858401412,7.12278663 0.640676588,10.8292854 3.87540583,12.1905216 L33.3182347,24.6349389 C34.0560621,24.9465472 34.5362355,25.6705093 34.5362355,26.4717878 L34.5362355,164.023424 C34.5362355,176.248778 43.0505301,186.523652 54.4622614,189.223866 C55.7317931,189.52376 56.3876397,190.879139 55.8360258,192.061142 C54.3053267,195.347087 53.429303,199.007898 53.429303,202.849115 C53.429303,216.979263 64.9136458,228.434968 78.9780425,228.434968 C93.0424391,228.434968 104.529124,216.933576 104.529124,202.849115 C104.529124,199.263277 103.791297,195.814499 102.439784,192.712474 C101.868261,191.400439 102.835635,189.938457 104.265614,189.938457 L154.681481,189.938457 C156.111461,189.938457 157.080006,191.400439 156.509654,192.711302 C155.152286,195.827385 154.410945,199.255076 154.410945,202.849115 C154.410945,216.979263 165.895288,228.434968 179.959684,228.434968 C194.024081,228.434968 205.509595,216.933576 205.509595,202.849115 C205.509595,188.764654 194.024081,177.262091 179.959684,177.262091 L60.4140695,177.262091 C53.1002085,177.262091 47.1940754,171.29936 47.1940754,164.023424 L47.1940754,150.074852 C47.1940754,148.648014 48.6509918,147.675702 49.9603428,148.24386 C53.149397,149.629697 56.6991669,150.408718 60.4140695,150.408718 L171.828458,150.074855 C173.47393,150.073684 179.036091,149.587545 177.641342,143.315259 Z" id="Fill-1"></path>
                    <path d="M281.171012,192.257589 C280.465845,194.085241 278.717593,195.295062 276.789822,195.316204 L276.732329,195.316204 C274.803385,195.316204 273.055132,194.126351 272.330018,192.319842 L236.750151,103.982942 L224.014895,130.231359 C223.527966,131.242676 222.701946,132.026123 221.710487,132.478338 C221.101532,132.755539 220.430391,132.908235 219.735784,132.908235 L207.121381,132.908235 L189.134328,132.908235 C189.479286,133.490828 189.75619,134.072247 190.122267,134.674809 L192.069984,137.490285 L198.376599,146.603878 C199.228432,147.712685 200.117811,148.810921 201.031831,149.906807 C202.32014,151.45021 203.664769,152.986565 205.088011,154.527619 C232.73269,184.394927 251.756961,206.498239 263.55121,220.677811 C272.026128,230.934274 285.409058,231.052907 293.926214,220.837554 C305.199508,207.219433 323.139628,186.182643 348.793177,158.147685 L294.250052,158.167653 L281.171012,192.257589 Z" id="Fill-4"></path>
                    <path d="M328.912326,22.1068148 C314.65099,22.1279348 301.612758,27.6308779 291.839649,36.6104137 C282.072397,45.6321897 274.266328,45.6321897 264.436984,36.6514805 C254.648644,27.7130114 241.651416,22.2452684 227.349077,22.3074551 C205.30276,22.3285752 186.322402,35.3455582 177.597834,54.113058 C176.851554,55.7228741 176.227115,57.520424 175.701087,59.4423474 C174.668947,63.212274 174.048023,67.4914283 173.763336,71.9395428 C173.10375,82.235561 174.253045,93.4139274 176.416907,101.183754 C178.121519,107.309739 180.668479,114.303991 184.155026,121.617391 C184.781808,121.31467 185.480054,121.09291 186.225163,121.09291 L210.131908,121.09291 L216.513367,121.09291 L222.791729,108.174487 L232.623416,87.945011 C233.444676,86.2577547 235.370712,85.1724195 237.034319,85.2909264 C238.924037,85.3531131 240.567728,86.5147152 241.291749,88.2430382 L276.295461,175.215352 L286.205642,149.380853 C286.90506,147.555143 288.671765,146.346608 290.617717,146.346608 L351.882999,146.346608 C353.145935,146.346608 354.306946,146.849968 355.149294,147.67365 C356.597335,145.70362 358.338266,143.291242 360.042878,140.884731 C364.500643,134.69656 373.687975,120.367788 378.00164,107.772033 C384,90.1156815 384,77.0728852 384,77.0728852 C383.937908,46.6353914 359.262622,22.0246813 328.912326,22.1068148" id="Fill-6"></path>
                </g>
            </g>
        </g>
    </g>
</svg>