<?xml version="1.0" encoding="UTF-8" standalone="no"?>
<svg width="382px" height="333px" viewBox="0 0 382 333" version="1.1" xmlns="http://www.w3.org/2000/svg" xmlns:xlink="http://www.w3.org/1999/xlink">
    <!-- Generator: sketchtool 39.1 (31720) - http://www.bohemiancoding.com/sketch -->
    <title>8B1F0D72-1D4A-4B25-915E-4AAA6039031F</title>
    <desc>Created with sketchtool.</desc>
    <defs></defs>
    <g id="Page-1" stroke="none" stroke-width="1" fill="none" fill-rule="evenodd" opacity="0.2">
        <g id="Kots_main_1280" transform="translate(-666.000000, -854.000000)" fill="#00C564">
            <g id="block_01" transform="translate(665.000000, 841.000000)">
                <g id="Parking" transform="translate(1.000000, 13.000000)">
                    <path d="M312.085107,318.126182 L312.085107,253.977883 C315.313168,255.547071 318.777821,256.665086 322.401029,257.251362 C324.395341,257.576107 326.423098,257.739719 328.426082,257.739719 C346.760129,257.739719 362.209237,244.585067 365.156112,226.452643 C366.249887,219.751988 365.490562,212.958371 363.031736,206.747313 C369.298336,201.474544 373.493824,194.149189 374.842772,185.849598 C376.329216,176.718313 374.170156,167.553562 368.765694,160.043523 C363.366186,152.533485 355.362924,147.580503 346.237397,146.094361 C345.27864,145.939425 344.316168,145.822914 343.34874,145.746066 C343.600197,125.889518 329.272116,108.251649 309.104787,104.968254 C306.927147,104.610042 304.706152,104.431557 302.509931,104.431557 C282.434266,104.431557 265.518534,118.840568 262.285518,138.700834 C262.024151,140.303488 261.859404,141.916057 261.787559,143.533585 C253.271474,148.268417 247.27615,156.664688 245.679461,166.487605 C245.171593,169.586317 245.128238,172.743285 245.534533,175.841997 C238.097358,180.746639 232.876224,188.629763 231.424463,197.567688 C229.08703,211.923401 236.877235,225.972962 249.666847,231.923729 C250.832467,246.390996 261.72934,258.640825 276.550425,261.056581 C278.268507,261.337944 280.015078,261.478006 281.741831,261.478006 C287.244151,261.478006 292.551995,260.015414 297.220668,257.42489 L297.220668,318.126182 L188.772192,318.126182 L188.772192,7.4369091 C188.772192,3.33049579 185.442558,0 181.339972,0 L47.56373,0 C43.4611446,0 40.1315101,3.33049579 40.1315101,7.4369091 L40.1315101,318.126182 L7.43221991,318.126182 C3.32963452,318.126182 0,321.457917 0,325.563091 C0,329.669504 3.32963452,333 7.43221991,333 L374.56778,333 C378.670365,333 382,329.669504 382,325.563091 C382,321.457917 378.670365,318.126182 374.56778,318.126182 L312.085107,318.126182 Z M281.741831,246.609145 C280.812803,246.609145 279.87015,246.531058 278.941123,246.376122 C269.88744,244.904854 263.558905,236.611461 264.531287,227.503726 C264.922717,223.813779 262.536975,220.400238 258.937303,219.500372 C250.304779,217.34119 244.663724,208.756518 246.095666,199.958654 C247.082912,193.897573 251.078969,188.92476 256.794346,186.654024 C260.485682,185.186474 262.372227,181.066426 261.071589,177.304589 C260.122742,174.58392 259.881195,171.7455 260.350663,168.874853 C261.371355,162.595623 265.740261,157.399702 271.755405,155.308691 C274.977272,154.189436 277.024849,151.013876 276.720128,147.615209 C276.525651,145.451068 276.60369,143.25718 276.95672,141.088082 C279.008013,128.466407 289.759957,119.305375 302.509931,119.305375 C303.908427,119.305375 305.325503,119.421886 306.719045,119.648712 C320.834069,121.949196 330.443929,135.307124 328.149851,149.431054 C328.019787,150.205732 327.850084,151.013876 327.632073,151.836894 C326.979276,154.344372 327.675427,157.008025 329.470308,158.877168 C331.266428,160.741353 333.898673,161.539582 336.429344,160.983053 C338.862157,160.445117 341.384157,160.373226 343.846699,160.774819 C354.598644,162.527451 361.919381,172.704861 360.172809,183.458632 C359.175653,189.5978 355.449633,194.797439 349.953506,197.7313 C348.118987,198.709253 346.77871,200.413545 346.255977,202.427708 C345.733244,204.436913 346.082559,206.577503 347.204824,208.325177 C350.214873,212.993077 351.380493,218.580674 350.489865,224.061676 C348.714803,234.959227 339.438154,242.870859 328.426082,242.870859 C327.220823,242.870859 325.996984,242.769221 324.791726,242.575862 C319.111033,241.646248 314.0596,238.605792 310.576367,234.011021 C308.954904,231.880347 306.31275,230.780924 303.65697,231.139135 C301.004906,231.498586 298.750466,233.259894 297.75331,235.748779 C295.159465,242.241201 288.724401,246.609145 281.741831,246.609145 L281.741831,246.609145 Z M85.9635328,227.648746 L173.907752,227.648746 L173.907752,215.747212 L85.9635328,215.747212 L85.9635328,227.648746 Z M85.9635328,173.208092 L173.907752,173.208092 L173.907752,161.312756 L85.9635328,161.312756 L85.9635328,173.208092 Z M85.9635328,118.772396 L173.907752,118.772396 L173.907752,106.872102 L85.9635328,106.872102 L85.9635328,118.772396 Z M85.9635328,64.3317427 L173.907752,64.3317427 L173.907752,52.4364066 L85.9635328,52.4364066 L85.9635328,64.3317427 Z M85.4705289,282.083202 L173.414748,282.083202 L173.414748,270.187866 C173.414748,270.187866 189.48613,270.187866 154.814263,270.187866 L85.4705289,270.187866 L85.4705289,282.083202 Z M54.502946,16.1133031 L173.414748,16.1133031 L173.414748,37.6642262 L78.038309,37.6642262 C73.9307688,37.6642262 70.6060891,40.989764 70.6060891,45.1011353 L70.6060891,71.8702896 C70.6060891,75.9767029 73.9307688,79.3071987 78.038309,79.3071987 L173.414748,79.3071987 L173.414748,92.0999218 L78.038309,92.0999218 C73.9307688,92.0999218 70.6060891,95.4304176 70.6060891,99.5368309 L70.6060891,126.305985 C70.6060891,130.417357 73.9307688,133.742894 78.038309,133.742894 L173.414748,133.742894 L173.414748,146.540575 L78.038309,146.540575 C73.9307688,146.540575 70.6060891,149.866113 70.6060891,153.977485 L70.6060891,180.746639 C70.6060891,184.853052 73.9307688,188.183548 78.038309,188.183548 L173.414748,188.183548 L173.414748,200.976271 L78.038309,200.976271 C73.9307688,200.976271 70.6060891,204.306767 70.6060891,208.41318 L70.6060891,235.182335 C70.6060891,239.293706 73.9307688,242.619244 78.038309,242.619244 L173.414748,242.619244 L173.414748,255.415685 L78.038309,255.415685 C73.9307688,255.415685 70.6060891,258.742463 70.6060891,262.852594 L70.6060891,289.622988 C70.6060891,293.729401 73.9307688,297.059897 78.038309,297.059897 L173.414748,297.059897 L173.41475,318.398539 C169.310926,318.398539 54.502946,318.398534 54.502946,318.398534 L54.502946,16.1133031 Z" id="Fill-1"></path>
                </g>
            </g>
        </g>
    </g>
</svg>